<svg width="41" height="41" viewBox="0 0 41 41" fill="none" xmlns="http://www.w3.org/2000/svg">
<circle cx="20.5" cy="20.5" r="20" fill="white" stroke="#A4ACAD"/>
<g clip-path="url(#clip0_622_1013)">
<path d="M33.8852 17.0498C33.7999 16.9545 33.678 16.9 33.55 16.9H31.6348L29.8006 10.7863C29.2807 9.07787 27.7083 7.90754 25.9225 7.9H24.4672C24.2772 7.36253 23.7701 7.00236 23.2 7H17.8C17.23 7.00236 16.7228 7.36253 16.5328 7.9H15.0775C13.2919 7.90759 11.7196 9.07765 11.1994 10.7858L9.36525 16.9H7.45006C7.20149 16.9 7 17.1015 7 17.35C7 17.3665 7.0009 17.3831 7.00276 17.3995L8.09175 27.196C8.51858 31.0713 11.7948 34.0037 15.6936 33.9999H25.306C29.2049 34.0037 32.4812 31.0714 32.9083 27.196L33.9973 17.3995C34.0113 17.2723 33.9706 17.1452 33.8852 17.0498ZM17.8 7.9H23.2C23.4485 7.9 23.65 8.10149 23.65 8.35C23.65 8.59851 23.4485 8.8 23.2 8.8H17.8C17.7409 8.79988 17.6823 8.78813 17.6277 8.76535C17.572 8.74093 17.5215 8.70595 17.4792 8.6623C17.4387 8.62264 17.4067 8.57522 17.3851 8.5228C17.362 8.46812 17.35 8.40934 17.35 8.35C17.35 8.10149 17.5515 7.9 17.8 7.9ZM12.0616 11.0437C12.4661 9.71529 13.689 8.80551 15.0775 8.8H16.5261C16.531 8.81395 16.54 8.8261 16.5454 8.84005C16.5647 8.88634 16.5868 8.93145 16.6116 8.97505C16.6297 9.0133 16.6498 9.05053 16.6719 9.08665C16.7704 9.23762 16.898 9.36744 17.0472 9.46869C17.1908 9.56623 17.3523 9.63441 17.5224 9.66939H17.5282C17.6176 9.68869 17.7086 9.69893 17.8 9.69999H23.2C23.2833 9.69943 23.3663 9.69099 23.448 9.67479C23.4732 9.67029 23.497 9.66309 23.5218 9.65679C23.577 9.64346 23.6312 9.62664 23.6842 9.60639C23.7094 9.59649 23.7342 9.58659 23.7589 9.57534C23.8115 9.55104 23.8625 9.52343 23.9115 9.49254C23.9304 9.48084 23.9497 9.47049 23.9677 9.45834C24.0318 9.41346 24.092 9.36334 24.1477 9.3085C24.1572 9.29905 24.1644 9.28825 24.1738 9.2788C24.2193 9.23121 24.2613 9.18036 24.2994 9.1267C24.3142 9.106 24.3268 9.0844 24.3403 9.06325C24.37 9.0156 24.3967 8.96616 24.4204 8.9152C24.4312 8.8918 24.442 8.8702 24.4519 8.845C24.4578 8.8297 24.4663 8.81575 24.4717 8.8H25.9225C27.311 8.8059 28.5336 9.71608 28.9375 11.0446L30.6952 16.9H24.9775V16.8959C24.9739 16.8613 24.9667 16.828 24.9622 16.7933C24.9487 16.6822 24.9334 16.571 24.9118 16.4621C24.901 16.409 24.8857 16.3573 24.8727 16.3046C24.852 16.2146 24.8317 16.1287 24.8056 16.0432C24.7881 15.986 24.7669 15.9311 24.7471 15.8753C24.7197 15.7966 24.6927 15.7174 24.6612 15.6404C24.6378 15.5837 24.6108 15.5288 24.5851 15.473C24.5514 15.4001 24.5181 15.3272 24.4807 15.2566C24.4515 15.2012 24.4195 15.1481 24.388 15.0941C24.3484 15.0262 24.3088 14.9591 24.2661 14.8934C24.2314 14.8408 24.195 14.7899 24.1581 14.7386C24.1131 14.6756 24.0681 14.6131 24.019 14.5528C23.9799 14.5033 23.9389 14.4551 23.8975 14.4074C23.8471 14.3494 23.7958 14.2927 23.7423 14.2369C23.6973 14.1919 23.6523 14.1469 23.6073 14.1019C23.5519 14.0488 23.4952 13.9975 23.4367 13.9471C23.389 13.9057 23.3409 13.8652 23.2909 13.826C23.2306 13.7779 23.1685 13.732 23.1055 13.687C23.0542 13.6505 23.0029 13.6141 22.9503 13.5799C22.885 13.5371 22.818 13.4975 22.7505 13.4584C22.696 13.4264 22.642 13.3949 22.5862 13.3652C22.516 13.3288 22.444 13.2955 22.372 13.2622C22.3158 13.2361 22.2595 13.2095 22.2019 13.1857C22.1263 13.1546 22.0489 13.1281 21.9711 13.1011C21.9139 13.0813 21.8572 13.0597 21.7992 13.0421C21.7168 13.0174 21.6322 12.9971 21.5481 12.9773C21.4918 12.9638 21.4365 12.9481 21.3798 12.9368C21.2853 12.9179 21.189 12.9053 21.0927 12.8918C21.0436 12.8855 20.9955 12.8756 20.946 12.8707C20.7993 12.8563 20.6503 12.8482 20.5 12.8482C20.3497 12.8482 20.2008 12.8563 20.0541 12.8707C20.0046 12.8756 19.9564 12.8855 19.9074 12.8918C19.8111 12.9044 19.7148 12.917 19.6203 12.9368C19.5636 12.9481 19.5082 12.9638 19.452 12.9773C19.3678 12.9976 19.2832 13.0174 19.2009 13.0421C19.1428 13.0597 19.0861 13.0813 19.0285 13.1011C18.9511 13.1281 18.8737 13.1546 18.7981 13.1857C18.7405 13.2095 18.6847 13.2361 18.628 13.2622C18.556 13.2955 18.484 13.3288 18.4138 13.3657C18.358 13.3949 18.304 13.4264 18.2496 13.4584C18.1821 13.4975 18.1146 13.5371 18.0498 13.5799C17.9971 13.6141 17.9458 13.6505 17.8945 13.687C17.8315 13.732 17.7694 13.777 17.7091 13.826C17.6592 13.8652 17.611 13.9057 17.5633 13.9471C17.5048 13.9975 17.4481 14.0488 17.3928 14.1019C17.3478 14.1469 17.3028 14.1919 17.2578 14.2369C17.2042 14.2927 17.1529 14.3494 17.1025 14.4074C17.0611 14.4551 17.0202 14.5033 16.981 14.5528C16.9329 14.6131 16.887 14.6756 16.842 14.7386C16.8051 14.7899 16.7686 14.8408 16.734 14.8934C16.689 14.9587 16.6516 15.0262 16.6125 15.0937C16.581 15.1477 16.5486 15.2012 16.5193 15.2566C16.482 15.3272 16.4487 15.4001 16.4149 15.473C16.3893 15.5288 16.3623 15.5837 16.3389 15.6404C16.3074 15.7174 16.2804 15.7966 16.2525 15.8758C16.2331 15.9316 16.212 15.9865 16.1944 16.0432C16.1683 16.1287 16.1494 16.2169 16.1274 16.3046C16.1143 16.3573 16.099 16.409 16.0882 16.4621C16.0666 16.571 16.0513 16.6822 16.0378 16.7933C16.0333 16.828 16.0261 16.8613 16.0225 16.8959V16.9H10.3048L12.0616 11.0437ZM24.1 17.35C24.1 19.3382 22.4882 20.95 20.5 20.95C18.5118 20.95 16.9 19.3382 16.9 17.35C16.9 15.3618 18.5118 13.75 20.5 13.75C22.4873 13.7522 24.0978 15.3627 24.1 17.35ZM32.0137 27.0965C31.6371 30.5161 28.7461 33.1034 25.306 33.0999H15.6936C12.2546 33.102 9.36531 30.5153 8.9886 27.097L7.9527 17.8H16.0225V17.804C16.0261 17.8387 16.0333 17.872 16.0378 17.9066C16.0513 18.0178 16.0666 18.1289 16.0882 18.2378C16.099 18.2909 16.1143 18.3427 16.1274 18.3953C16.1481 18.4853 16.1683 18.5713 16.1944 18.6568C16.212 18.7135 16.2331 18.7684 16.2525 18.8242C16.2804 18.9034 16.3074 18.9826 16.3389 19.0595C16.3623 19.1162 16.3893 19.1711 16.4149 19.2269C16.4487 19.2998 16.482 19.3727 16.5193 19.4434C16.5486 19.4987 16.581 19.5523 16.6125 19.6063C16.6516 19.6738 16.6912 19.7413 16.734 19.8065C16.7686 19.8592 16.8051 19.91 16.842 19.9613C16.887 20.0243 16.932 20.0869 16.981 20.1472C17.0202 20.1967 17.0611 20.2448 17.1025 20.2925C17.1529 20.3506 17.2042 20.4073 17.2578 20.4631C17.3028 20.5081 17.3478 20.5531 17.3928 20.5981C17.4481 20.6512 17.5048 20.7025 17.5633 20.7529C17.611 20.7943 17.6592 20.8348 17.7091 20.8739C17.7694 20.9221 17.8315 20.968 17.8945 21.013C17.9458 21.0494 17.9971 21.0859 18.0498 21.1201C18.115 21.1628 18.1821 21.2024 18.2496 21.2416C18.304 21.2735 18.358 21.305 18.4138 21.3343C18.484 21.3712 18.556 21.4045 18.628 21.4378C18.6847 21.4639 18.7405 21.4904 18.7981 21.5143C18.8737 21.5453 18.9511 21.5719 19.0285 21.5989C19.0861 21.6187 19.1428 21.6403 19.2009 21.6578C19.2832 21.6826 19.3678 21.7028 19.452 21.7226C19.5082 21.7361 19.5636 21.7519 19.6203 21.7631C19.7148 21.782 19.8111 21.7946 19.9074 21.8081C19.9564 21.8144 20.0046 21.8243 20.0541 21.8293C20.2008 21.8437 20.3497 21.8518 20.5 21.8518C20.6503 21.8518 20.7993 21.8437 20.946 21.8293C20.9955 21.8243 21.0436 21.8144 21.0927 21.8081C21.189 21.7955 21.2853 21.7829 21.3798 21.7631C21.4365 21.7519 21.4918 21.7361 21.5481 21.7226C21.6322 21.7024 21.7168 21.6826 21.7992 21.6578C21.8572 21.6403 21.9139 21.6187 21.9711 21.5989C22.0489 21.5719 22.1263 21.5453 22.2019 21.5143C22.2595 21.4904 22.3158 21.4639 22.372 21.4378C22.444 21.4045 22.516 21.3712 22.5862 21.3347C22.642 21.305 22.696 21.2735 22.7505 21.2416C22.818 21.2024 22.8855 21.1628 22.9503 21.1201C23.0029 21.0859 23.0542 21.0494 23.1055 21.013C23.1685 20.968 23.2306 20.923 23.2909 20.8739C23.3409 20.8348 23.389 20.7943 23.4367 20.7529C23.4952 20.7025 23.5519 20.6512 23.6073 20.5981C23.6523 20.5531 23.6973 20.5081 23.7423 20.4631C23.7958 20.4073 23.8471 20.3506 23.8975 20.2925C23.9389 20.2448 23.9799 20.1967 24.019 20.1472C24.0672 20.0869 24.1131 20.0243 24.1581 19.9613C24.195 19.91 24.2314 19.8592 24.2661 19.8065C24.3088 19.7413 24.3484 19.6738 24.388 19.6058C24.4195 19.5518 24.4515 19.4987 24.4807 19.4434C24.5181 19.3727 24.5514 19.2998 24.5851 19.2269C24.6108 19.1711 24.6378 19.1162 24.6612 19.0595C24.6927 18.9826 24.7197 18.9034 24.7471 18.8246C24.7669 18.7688 24.7881 18.7139 24.8056 18.6568C24.8317 18.5713 24.8506 18.4831 24.8727 18.3953C24.8857 18.3427 24.901 18.2909 24.9118 18.2378C24.9334 18.1289 24.9487 18.0178 24.9622 17.9066C24.9667 17.872 24.9739 17.8387 24.9775 17.804V17.8H33.0473L32.0137 27.0965Z" fill="black"/>
<path d="M20.4999 22.3C19.7543 22.3 19.1499 22.9044 19.1499 23.65V30.85C19.1499 31.5956 19.7543 32.2 20.4999 32.2C21.2455 32.2 21.8499 31.5956 21.8499 30.85V23.65C21.8499 22.9044 21.2454 22.3 20.4999 22.3ZM20.9499 30.85C20.9499 31.0985 20.7484 31.3 20.4999 31.3C20.2514 31.3 20.0499 31.0985 20.0499 30.85V23.65C20.0499 23.4015 20.2514 23.2 20.4999 23.2C20.7484 23.2 20.9499 23.4015 20.9499 23.65V30.85Z" fill="black"/>
<path d="M15.1 22.3C14.3544 22.3 13.75 22.9044 13.75 23.65V30.85C13.75 31.5956 14.3544 32.2 15.1 32.2C15.8456 32.2 16.45 31.5956 16.45 30.85V23.65C16.45 22.9044 15.8455 22.3 15.1 22.3ZM15.55 30.85C15.55 31.0985 15.3485 31.3 15.1 31.3C14.8515 31.3 14.65 31.0985 14.65 30.85V23.65C14.65 23.4015 14.8515 23.2 15.1 23.2C15.3485 23.2 15.55 23.4015 15.55 23.65V30.85Z" fill="black"/>
<path d="M24.5498 23.65V30.85C24.5498 31.5956 25.1542 32.2 25.8998 32.2C26.6454 32.2 27.2498 31.5956 27.2498 30.85V23.65C27.2498 22.9044 26.6454 22.3 25.8998 22.3C25.1542 22.3 24.5498 22.9044 24.5498 23.65ZM25.4498 23.65C25.4498 23.4015 25.6513 23.2 25.8998 23.2C26.1483 23.2 26.3498 23.4015 26.3498 23.65V30.85C26.3498 31.0985 26.1483 31.3 25.8998 31.3C25.6513 31.3 25.4498 31.0985 25.4498 30.85V23.65Z" fill="black"/>
<path d="M20.9498 16.9V15.1C20.9498 14.8515 20.7483 14.65 20.4998 14.65C20.2513 14.65 20.0498 14.8515 20.0498 15.1V16.9H18.2498C18.0013 16.9 17.7998 17.1014 17.7998 17.35C17.7998 17.5985 18.0013 17.8 18.2498 17.8H20.0498V19.6C20.0498 19.8485 20.2513 20.05 20.4998 20.05C20.7483 20.05 20.9498 19.8485 20.9498 19.6V17.8H22.7498C22.9983 17.8 23.1998 17.5985 23.1998 17.35C23.1998 17.1014 22.9983 16.9 22.7498 16.9H20.9498Z" fill="black"/>
</g>
<defs>
<clipPath id="clip0_622_1013">
<rect width="27" height="27" fill="white" transform="translate(7 7)"/>
</clipPath>
</defs>
</svg>
