<svg width="30" height="30" viewBox="0 0 30 30" fill="none" xmlns="http://www.w3.org/2000/svg">
<g clip-path="url(#clip0_1135_1236)">
<path d="M29.5932 15.6084L28.4369 14.4522V11.5321H25.5167L21.0044 7.02047C20.6864 6.70248 20.2637 6.52734 19.8142 6.52734C19.3645 6.52734 18.9419 6.70242 18.624 7.02041L16.793 8.85135L17.4423 9.50074L19.2734 7.66975C19.4179 7.52525 19.61 7.44568 19.8143 7.44568C20.0186 7.44568 20.2108 7.52525 20.3553 7.6698L24.2182 11.5322H22.4684C20.1758 11.5322 18.1814 12.8316 17.182 14.7325C15.8123 14.0187 14.1886 14.0187 12.8184 14.7327C11.819 12.8317 9.82448 11.5322 7.53183 11.5322H5.78222L9.6446 7.6698C9.78915 7.52531 9.98134 7.44574 10.1859 7.44574C10.3904 7.44574 10.5826 7.52531 10.7272 7.66986L12.5582 9.5008L13.2075 8.85141L11.3765 7.02053C11.0585 6.70254 10.6357 6.5274 10.1859 6.5274C9.73612 6.5274 9.31337 6.70248 8.99538 7.02047L4.48366 11.5321H1.56306V14.4526L0.407004 15.6085C0.00546098 16.01 -0.108914 16.5853 0.10841 17.1098C0.325617 17.6343 0.813059 17.96 1.38054 17.96H1.58046C1.81577 21.0374 4.39501 23.4694 7.53159 23.4694C10.8227 23.4694 13.5002 20.7919 13.5002 17.5007C13.5002 16.8288 13.3885 16.1825 13.1829 15.5793C14.319 14.9622 15.6815 14.9621 16.8171 15.5791C16.6114 16.1823 16.4997 16.8287 16.4997 17.5007C16.4997 20.7919 19.1772 23.4694 22.4683 23.4694C25.605 23.4694 28.1842 21.0373 28.4194 17.96H28.619C29.1867 17.96 29.6743 17.6342 29.8917 17.1095C30.1089 16.585 29.9946 16.0099 29.5932 15.6084ZM1.56306 17.0418H1.38066C1.0963 17.0418 0.984387 16.8249 0.956848 16.7585C0.92925 16.6919 0.855012 16.4592 1.0564 16.2578L1.56312 15.7511L1.56306 17.0418ZM7.53171 22.5511C4.74687 22.5511 2.48134 20.2854 2.48134 17.5007V12.4504H7.53171C10.3166 12.4504 12.5821 14.716 12.5821 17.5007C12.5821 20.2856 10.3164 22.5511 7.53171 22.5511ZM27.5187 17.5007C27.5187 20.2854 25.2531 22.5511 22.4683 22.5511C19.6835 22.5511 17.4179 20.2854 17.4179 17.5007C17.4179 14.7159 19.6835 12.4504 22.4683 12.4504H27.5187V17.5007ZM29.0433 16.7582C29.0158 16.8247 28.9037 17.0418 28.6191 17.0418H28.437V15.7509L28.9439 16.2578C29.1451 16.459 29.0708 16.6917 29.0433 16.7582Z" fill="#A4ACAD"/>
<path d="M7.53182 12.8438C4.96266 12.8438 2.87256 14.934 2.87256 17.503C2.87256 20.0722 4.96271 22.1623 7.53182 22.1623C10.101 22.1623 12.1911 20.0721 12.1911 17.503C12.1911 14.9339 10.1009 12.8438 7.53182 12.8438ZM7.53182 21.2441C7.0043 21.2441 6.50227 21.1338 6.0467 20.936L9.2032 17.7795L8.55393 17.1301L5.23283 20.4512C4.35604 19.766 3.79072 18.6997 3.79072 17.5031C3.79072 15.4403 5.46896 13.7621 7.53176 13.7621C8.05928 13.7621 8.56131 13.8724 9.01687 14.0702L4.55643 18.5307L5.2057 19.18L9.83068 14.555C10.7075 15.2403 11.2728 16.3066 11.2728 17.5031C11.2728 19.5659 9.59461 21.2441 7.53182 21.2441Z" fill="#A4ACAD"/>
<path d="M9.85659 15.825L9.17773 16.5039L9.82701 17.1532L10.5059 16.4743L9.85659 15.825Z" fill="#A4ACAD"/>
<path d="M22.4683 12.8438C19.8992 12.8438 17.8091 14.934 17.8091 17.503C17.8091 20.0722 19.8992 22.1623 22.4683 22.1623C25.0374 22.1623 27.1276 20.0721 27.1276 17.503C27.1276 14.9338 25.0375 12.8438 22.4683 12.8438ZM22.4683 21.244C21.9408 21.244 21.4388 21.1337 20.9832 20.9359L24.1397 17.7793L23.4904 17.13L20.1694 20.4511C19.2926 19.7658 18.7273 18.6996 18.7273 17.503C18.7273 15.4402 20.4055 13.762 22.4683 13.762C22.9959 13.762 23.4979 13.8723 23.9535 14.0701L19.493 18.5306L20.1423 19.1799L24.7673 14.5549C25.644 15.2403 26.2093 16.3066 26.2093 17.5031C26.2094 19.5659 24.5311 21.244 22.4683 21.244Z" fill="#A4ACAD"/>
<path d="M24.7932 15.8289L24.1143 16.5078L24.7635 17.1571L25.4424 16.4782L24.7932 15.8289Z" fill="#A4ACAD"/>
</g>
<defs>
<clipPath id="clip0_1135_1236">
<rect width="30" height="30" fill="white"/>
</clipPath>
</defs>
</svg>
