<svg width="144" height="50" viewBox="0 0 144 50" fill="none" xmlns="http://www.w3.org/2000/svg">
<rect width="143.491" height="50" fill="black"/>
<path d="M133.425 3.4625C135.956 3.4625 137.673 3.9438 138.675 4.9341C139.677 5.92385 140.164 7.62455 140.164 10.1331V40.0514C140.164 42.5528 139.679 44.2439 138.681 45.2216C137.683 46.2002 135.963 46.6758 133.426 46.6758H9.97199C7.45001 46.6758 5.75016 46.2043 4.77553 45.2344C3.8009 44.2646 3.32717 42.5718 3.32717 40.0593V10.1331C3.32717 7.25696 3.64147 5.67274 4.37806 4.83576C5.20268 3.89892 6.9828 3.4625 9.98045 3.4625H133.425ZM133.425 1.52344H9.98045C2.61263 1.52344 1.38623 4.07205 1.38623 10.1331V40.0592C1.38623 46.1157 3.90973 48.6148 9.97199 48.6148H133.425C139.492 48.6148 142.105 46.1122 142.105 40.0514V10.1331C142.105 4.07205 139.492 1.52344 133.425 1.52344Z" fill="#DBD7D7"/>
<path fill-rule="evenodd" clip-rule="evenodd" d="M38.0737 30.8377C37.365 32.4071 37.0258 33.1077 36.1134 34.4947C34.8398 36.4314 33.0456 38.8428 30.8222 38.8631C28.8459 38.8814 28.3387 37.5783 25.6572 37.593C22.9758 37.6075 22.4157 38.8859 20.4394 38.8679C18.2158 38.8476 16.5154 36.6694 15.242 34.7334C11.6815 29.3186 11.3095 22.9639 13.505 19.5858C15.0658 17.1848 17.5271 15.7794 19.8422 15.7794C22.1989 15.7794 23.6805 17.0708 25.6291 17.0708C27.5192 17.0708 28.6715 15.7773 31.3959 15.7773C33.4555 15.7773 35.6378 16.8974 37.193 18.8354C32.0984 21.6246 32.9257 28.8942 38.0737 30.8377Z" fill="#DBD7D7"/>
<path fill-rule="evenodd" clip-rule="evenodd" d="M29.3295 13.6134C30.3188 12.3441 31.0712 10.5507 30.7983 8.71875C29.1817 8.82997 27.2895 9.85781 26.1849 11.1978C25.1824 12.4146 24.3548 14.2189 24.6772 15.9722C26.4425 16.0268 28.2689 14.9735 29.3295 13.6134Z" fill="#DBD7D7"/>
<path fill-rule="evenodd" clip-rule="evenodd" d="M129.54 33.3799H122.381C122.41 34.3494 122.756 35.1996 123.421 35.7573C124.023 36.2587 124.802 36.4874 125.761 36.4874C126.823 36.4874 127.786 36.3078 128.656 35.9643L129.031 37.6162C128.019 38.0614 126.816 38.274 125.428 38.274C123.767 38.274 122.46 37.7863 121.51 36.8083C120.561 35.8305 120.082 34.5163 120.082 32.8698C120.082 31.2483 120.526 29.9047 121.407 28.8259C122.339 27.6801 123.591 27.1073 125.164 27.1073C126.715 27.1073 127.885 27.6798 128.677 28.8256C129.309 29.7404 129.627 30.9123 129.627 32.2515C129.627 32.6749 129.596 33.1029 129.54 33.3799ZM119.368 29.4449C119.229 29.4019 118.862 29.3843 118.598 29.3843C117.759 29.3843 117.104 29.7001 116.646 30.3317C116.247 30.892 116.041 31.5877 116.041 32.4482V37.9506H113.684V30.7226C113.684 29.4939 113.633 28.3938 113.591 27.2857H115.667L115.755 29.5018H115.821C116.07 28.8093 116.466 28.1795 117.014 27.7562C117.544 27.3693 118.139 27.1589 118.757 27.1589C118.976 27.1589 119.229 27.1453 119.368 27.1742V29.4449ZM110.742 36.6885C109.752 37.7745 108.441 38.3183 106.81 38.3183C105.232 38.3183 103.973 37.7963 103.038 36.7514C102.104 35.7097 101.639 34.3877 101.639 32.8007C101.639 31.1399 102.12 29.777 103.084 28.7193C104.05 27.6557 105.346 27.1332 106.981 27.1332C108.562 27.1332 109.828 27.65 110.785 28.6999C111.695 29.7093 112.152 31.023 112.152 32.6249C112.152 34.2776 111.684 35.6259 110.742 36.6885ZM100.929 29.2248H98.4335V34.3486C98.4335 35.6719 98.8446 36.3278 99.7725 36.3278C100.2 36.3278 100.522 36.2967 100.804 36.224L100.858 38.0294C100.386 38.2058 99.7611 38.2954 98.9953 38.2954C98.0573 38.2954 97.2907 38.0123 96.7621 37.4344C96.2269 36.8633 95.938 35.8982 95.938 34.5446V29.2248H94.413V27.2857H95.938V25.386L98.4335 24.6795V27.2857H100.929V29.2248ZM92.543 36.9924C91.569 37.8618 90.2183 38.2938 88.4859 38.2938C86.8803 38.2938 85.5965 37.9834 84.627 37.3681L85.1813 35.3823C86.2261 35.9974 87.374 36.3096 88.623 36.3096C89.5253 36.3096 90.2231 36.1044 90.7244 35.7029C91.2224 35.2997 91.4729 34.7594 91.4729 34.0741C91.4729 33.4791 91.2665 32.9711 90.8566 32.5566C90.4406 32.1456 89.7611 31.7658 88.8027 31.4094C86.1987 30.4411 84.8942 29.0213 84.8942 27.153C84.8942 25.9323 85.3491 24.9285 86.2713 24.1496C87.1919 23.3717 88.4104 22.9805 89.929 22.9805C91.2832 22.9805 92.4106 23.2177 93.3105 23.6853L92.7084 25.6284C91.8691 25.1735 90.9151 24.9429 89.8512 24.9429C89.0101 24.9429 88.3506 25.1568 87.8762 25.5591C87.4795 25.9321 87.2803 26.3807 87.2803 26.9086C87.2803 27.4932 87.5088 27.981 87.9644 28.3691C88.3632 28.7206 89.0853 29.101 90.1271 29.5125C91.4129 30.0234 92.352 30.6305 92.958 31.3241C93.5602 32.0151 93.8636 32.8744 93.8636 33.9026C93.8633 35.1695 93.4203 36.2022 92.543 36.9924ZM78.7582 36.9093C77.8691 37.847 76.7598 38.3181 75.4401 38.3181C74.0194 38.3181 73.0626 37.8116 72.3694 36.7924V42.5212H70.0126V30.8735C70.0126 29.727 69.9686 28.6708 69.9112 27.2857H72.0043L72.1423 29.0863H72.1834C72.9842 27.8397 74.1874 27.1522 75.8075 27.1522C77.0748 27.1522 78.1315 27.6386 78.9779 28.6416C79.827 29.6396 80.2494 30.9548 80.2494 32.5868C80.2494 34.4162 79.7536 35.8475 78.7582 36.9093ZM66.9627 36.9093C66.0758 37.847 64.9683 38.3181 63.6522 38.3181C62.2272 38.3181 61.2783 37.8116 60.5851 36.7924V42.5212H58.2283V30.8735C58.2283 29.727 58.1737 28.6708 58.1131 27.2857H60.2118L60.3436 29.0863H60.3852C61.1847 27.8397 62.3904 27.1522 64.0127 27.1522C65.279 27.1522 66.333 27.6386 67.1849 28.6416C68.0288 29.6396 68.4537 30.9548 68.4537 32.5868C68.4537 34.4162 67.9579 35.8475 66.9627 36.9093ZM54.2039 37.9506L52.8136 33.6569H47.9743L46.6469 37.9506H44.1753L48.9649 23.1306H51.9283L56.7465 37.9506H54.2039ZM124.988 28.7594C124.209 28.7594 123.576 29.158 123.088 29.8015C122.691 30.3152 122.453 30.8868 122.381 31.7179H127.351C127.364 30.8868 127.213 30.3395 126.89 29.8217C126.476 29.1622 125.84 28.7594 124.988 28.7594ZM50.3813 25.2082H50.3397C50.1897 25.9007 49.9574 26.8224 49.6303 28.06L48.3931 31.9949H52.3903L51.1365 28.06C51.0008 27.6609 50.7476 26.5932 50.3813 25.2082ZM75.035 29.0247C74.4439 29.0247 73.9158 29.2181 73.4352 29.6076C72.9564 30.0028 72.6338 30.5138 72.4856 31.1468C72.4123 31.4435 72.3694 31.6839 72.3694 31.8767V33.6616C72.3694 34.4429 72.6134 35.1035 73.0941 35.6404C73.5717 36.1724 74.1992 36.4427 74.9616 36.4427C75.8648 36.4427 76.5652 36.099 77.0665 35.4058C77.5682 34.7139 77.821 33.8021 77.821 32.6661C77.821 31.6242 77.584 30.7625 77.1143 30.0875C76.595 29.3843 75.9025 29.0247 75.035 29.0247ZM106.894 28.8763C105.939 28.8763 105.209 29.2996 104.711 30.1519C104.279 30.8532 104.068 31.7097 104.068 32.7223C104.068 33.7094 104.279 34.5508 104.711 35.2539C105.221 36.1046 105.944 36.5278 106.876 36.5278C107.783 36.5278 108.5 36.0988 109.013 35.2273C109.458 34.5155 109.679 33.6614 109.679 32.6812C109.679 31.6997 109.466 30.8532 109.042 30.1518C108.534 29.2996 107.823 28.8763 106.894 28.8763ZM63.2363 29.0247C62.6484 29.0247 62.1171 29.2181 61.637 29.6076C61.1572 30.0028 60.844 30.5138 60.6958 31.1468C60.6233 31.4435 60.5853 31.6839 60.5853 31.8767V33.6616C60.5853 34.4429 60.8218 35.1035 61.3036 35.6404C61.7812 36.1724 62.4053 36.4427 63.1698 36.4427C64.0662 36.4427 64.7712 36.099 65.271 35.4058C65.7716 34.7139 66.0199 33.8021 66.0199 32.6661C66.0199 31.6242 65.7873 30.7625 65.3154 30.0875C64.7973 29.3843 64.1063 29.0247 63.2363 29.0247Z" fill="#DBD7D7"/>
<path d="M47.3179 17.291L46.6566 19.4668H45.2085L47.6714 11.7891H49.4615L51.9587 19.4668H50.4536L49.7581 17.291H47.3179ZM49.5186 16.2317L48.9143 14.3407C48.7661 13.8737 48.6406 13.3497 48.5265 12.9054H48.5038C48.3897 13.3497 48.2756 13.8852 48.1389 14.3407L47.5459 16.2317H49.5186Z" fill="#DBD7D7"/>
<path d="M53.5555 13.918L54.4564 16.7315C54.6159 17.2214 54.7299 17.6658 54.8325 18.1213H54.8667C54.9693 17.6658 55.0948 17.2328 55.243 16.7315L56.121 13.918H57.6033L55.4824 19.4655H54.1028L52.0391 13.918H53.5555Z" fill="#DBD7D7"/>
<path d="M61.5149 19.4658L61.4237 18.8507H61.3895C61.0474 19.2835 60.4658 19.5912 59.7476 19.5912C58.6301 19.5912 58.0029 18.7824 58.0029 17.9394C58.0029 16.5384 59.2458 15.832 61.2982 15.8434V15.7522C61.2982 15.3877 61.15 14.784 60.1694 14.784C59.6221 14.784 59.052 14.9549 58.6757 15.1941L58.4021 14.2829C58.8126 14.0322 59.5309 13.793 60.4089 13.793C62.1876 13.793 62.7007 14.9207 62.7007 16.1283V18.1331C62.7007 18.6342 62.7236 19.1241 62.7806 19.4658H61.5149ZM61.3325 16.7547C60.3405 16.7319 59.394 16.9484 59.394 17.7913C59.394 18.3381 59.7476 18.5887 60.1922 18.5887C60.7509 18.5887 61.1614 18.2241 61.2869 17.8255C61.321 17.723 61.3325 17.609 61.3325 17.5179V16.7547Z" fill="#DBD7D7"/>
<path d="M65.5969 11.3789H64.1831V19.4667H65.5969V11.3789Z" fill="#DBD7D7"/>
<path d="M68.6071 12.3688C68.6071 12.7902 68.2993 13.1206 67.809 13.1206C67.3415 13.1206 67.0337 12.7902 67.0337 12.3688C67.0337 11.9359 67.3528 11.6055 67.8203 11.6055C68.2993 11.6055 68.5957 11.9359 68.6071 12.3688ZM67.1134 13.9179H68.5272V19.4654H67.1134V13.9179Z" fill="#DBD7D7"/>
<path d="M69.9873 19.4667C70.01 19.0908 70.0329 18.4757 70.0329 17.9062V11.3789H71.4354V14.6824H71.4583C71.8003 14.1471 72.4046 13.7939 73.237 13.7939C74.5939 13.7939 75.5628 14.9216 75.5514 16.6076C75.5514 18.6011 74.2858 19.5921 73.0315 19.5921C72.3132 19.5921 71.6747 19.3187 71.2757 18.6351H71.2528L71.1843 19.4667H69.9873ZM71.4354 17.1771C71.4354 17.291 71.4468 17.4049 71.4696 17.5074C71.6178 18.0656 72.1081 18.4871 72.7124 18.4871C73.5904 18.4871 74.1264 17.7809 74.1264 16.6645C74.1264 15.6849 73.6589 14.8875 72.7238 14.8875C72.1537 14.8875 71.6406 15.2976 71.481 15.9127C71.4583 16.0152 71.4354 16.1405 71.4354 16.2772V17.1771Z" fill="#DBD7D7"/>
<path d="M78.1175 11.3789H76.7036V19.4667H78.1175V11.3789Z" fill="#DBD7D7"/>
<path d="M80.6263 17.0851C80.6605 18.0876 81.4473 18.5204 82.3366 18.5204C82.9866 18.5204 83.4542 18.4293 83.8761 18.2697L84.0813 19.238C83.6023 19.4317 82.941 19.5797 82.143 19.5797C80.3414 19.5797 79.2808 18.4748 79.2808 16.7776C79.2808 15.2398 80.2157 13.793 81.9946 13.793C83.7962 13.793 84.389 15.2739 84.389 16.4927C84.389 16.7547 84.3663 16.9597 84.3436 17.0851H80.6263ZM83.0664 16.1054C83.0777 15.5928 82.8497 14.7499 81.9146 14.7499C81.048 14.7499 80.6832 15.5359 80.6261 16.1054H83.0664Z" fill="#DBD7D7"/>
<path d="M93.1577 16.6409C93.1577 18.6799 91.7209 19.5912 90.307 19.5912C88.7334 19.5912 87.5249 18.509 87.5249 16.732C87.5249 14.9093 88.7221 13.793 90.3983 13.793C92.0516 13.793 93.1577 14.955 93.1577 16.6409ZM88.9731 16.6978C88.9731 17.7686 89.4975 18.5773 90.3527 18.5773C91.1507 18.5773 91.7096 17.7914 91.7096 16.675C91.7096 15.8093 91.3218 14.8183 90.3641 14.8183C89.3721 14.8183 88.9731 15.7751 88.9731 16.6978Z" fill="#DBD7D7"/>
<path d="M94.3098 15.57C94.3098 14.9322 94.2981 14.3967 94.2642 13.9183H95.4955L95.564 14.7499H95.5981C95.8377 14.3169 96.442 13.793 97.3655 13.793C98.3346 13.793 99.3382 14.4194 99.3382 16.1737V19.4658H97.9357V16.3333C97.9357 15.5358 97.6393 14.9322 96.8754 14.9322C96.3167 14.9322 95.9291 15.3308 95.7807 15.7522C95.7352 15.8776 95.7237 16.0485 95.7237 16.2079V19.4658H94.31V15.57H94.3098Z" fill="#DBD7D7"/>
<path d="M104.8 12.3359V13.9193H106.134V14.9674H104.8V17.4164C104.8 18.0886 104.983 18.4416 105.519 18.4416C105.758 18.4416 105.94 18.4074 106.066 18.3733L106.089 19.4441C105.883 19.5238 105.519 19.5808 105.074 19.5808C104.561 19.5808 104.127 19.4099 103.865 19.1251C103.569 18.8062 103.432 18.3049 103.432 17.576V14.9674H102.634V13.9193H103.432V12.6663L104.8 12.3359Z" fill="#DBD7D7"/>
<path d="M107.195 11.3789H108.609V14.6824H108.632C108.803 14.4203 109.031 14.204 109.328 14.0446C109.601 13.885 109.932 13.7939 110.285 13.7939C111.232 13.7939 112.224 14.4203 112.224 16.1975V19.4667H110.821V16.3569C110.821 15.5482 110.525 14.9444 109.749 14.9444C109.202 14.9444 108.814 15.309 108.666 15.7303C108.621 15.8443 108.609 15.9925 108.609 16.1519V19.4667H107.195V11.3789H107.195Z" fill="#DBD7D7"/>
<path d="M114.71 17.0851C114.744 18.0876 115.531 18.5204 116.42 18.5204C117.07 18.5204 117.538 18.4293 117.96 18.2697L118.165 19.238C117.686 19.4317 117.024 19.5797 116.226 19.5797C114.425 19.5797 113.364 18.4748 113.364 16.7776C113.364 15.2398 114.299 13.793 116.078 13.793C117.88 13.793 118.473 15.2739 118.473 16.4927C118.473 16.7547 118.45 16.9597 118.427 17.0851H114.71ZM117.15 16.1054C117.161 15.5928 116.933 14.7499 115.998 14.7499C115.132 14.7499 114.767 15.5359 114.71 16.1054H117.15Z" fill="#DBD7D7"/>
</svg>
