<svg width="30" height="30" viewBox="0 0 30 30" fill="none" xmlns="http://www.w3.org/2000/svg">
<g clip-path="url(#clip0_1135_1315)">
<path d="M28.8891 9.2625C28.9422 9.21939 28.9853 9.16515 29.0153 9.1036C29.0452 9.04206 29.0614 8.9747 29.0625 8.90625V7.03125C29.0653 6.68719 28.9418 6.35406 28.7155 6.09491C28.4892 5.83576 28.1757 5.66857 27.8344 5.625L26.775 4.875C26.4315 4.62404 26.1704 4.27647 26.0252 3.87659C25.8799 3.47671 25.857 3.04263 25.9594 2.62969C26.0379 2.31764 26.0441 1.9918 25.9775 1.67698C25.911 1.36217 25.7735 1.06669 25.5755 0.813071C25.3775 0.55945 25.1242 0.354375 24.8349 0.213473C24.5456 0.0725708 24.228 -0.000440631 23.9063 2.00061e-06C23.5845 -0.000440631 23.2669 0.0725708 22.9776 0.213473C22.6883 0.354375 22.435 0.55945 22.237 0.813071C22.039 1.06669 21.9015 1.36217 21.835 1.67698C21.7684 1.9918 21.7746 2.31764 21.8531 2.62969C21.9558 3.04193 21.933 3.47543 21.7877 3.87463C21.6424 4.27383 21.3811 4.62054 21.0375 4.87031L19.9781 5.625C19.6368 5.66857 19.3233 5.83576 19.097 6.09491C18.8707 6.35406 18.7472 6.68719 18.75 7.03125V8.90625C18.7511 8.9747 18.7673 9.04206 18.7972 9.1036C18.8272 9.16515 18.8703 9.21939 18.9234 9.2625C18.5749 9.56989 18.2956 9.94782 18.1041 10.3713C17.9126 10.7947 17.8132 11.254 17.8125 11.7188V14.1422C17.4852 14.1939 17.1498 14.1499 16.8469 14.0156C16.772 13.092 16.4875 12.1976 16.015 11.4005C15.5424 10.6034 14.8943 9.92453 14.12 9.41558C13.3456 8.90663 12.4653 8.58099 11.5462 8.46342C10.627 8.34585 9.69315 8.43946 8.81561 8.73712C7.93807 9.03477 7.13997 9.52865 6.48201 10.1812C5.82406 10.8337 5.32359 11.6277 5.01866 12.5027C4.71374 13.3778 4.61239 14.3108 4.72234 15.2309C4.83228 16.151 5.15061 17.0339 5.65313 17.8125H4.21875C3.56413 17.8107 2.91881 17.6574 2.3333 17.3647C1.74779 17.0719 1.23797 16.6476 0.843752 16.125C0.784689 16.0458 0.702125 15.9873 0.607845 15.9579C0.513564 15.9284 0.412386 15.9295 0.318752 15.9609C0.225648 15.9924 0.144782 16.0523 0.0875837 16.1322C0.0303854 16.2121 -0.000252107 16.308 1.5626e-06 16.4063V22.0313C1.5626e-06 24.1447 0.839564 26.1716 2.33399 27.666C3.82842 29.1604 5.85531 30 7.96875 30H11.25C12.4776 30.0088 13.674 29.6131 14.6542 28.874C15.6345 28.1348 16.344 27.0935 16.6731 25.9107C17.0023 24.728 16.9328 23.4698 16.4753 22.3306C16.0178 21.1913 15.1979 20.2344 14.1422 19.6078C14.6798 19.2449 15.1548 18.7968 15.5484 18.2813H16.2141C16.7707 18.2844 17.3196 18.1508 17.8125 17.8922V28.5938C17.8125 28.9667 17.9607 29.3244 18.2244 29.5881C18.4881 29.8518 18.8458 30 19.2188 30H28.5938C28.9667 30 29.3244 29.8518 29.5881 29.5881C29.8518 29.3244 30 28.9667 30 28.5938V11.7188C29.9993 11.254 29.9 10.7947 29.7084 10.3713C29.5169 9.94782 29.2376 9.56989 28.8891 9.2625ZM22.7625 2.4C22.7208 2.22699 22.7188 2.04676 22.7568 1.87288C22.7948 1.699 22.8718 1.53601 22.9819 1.39618C23.092 1.25635 23.2324 1.14332 23.3925 1.06561C23.5526 0.987891 23.7283 0.947513 23.9063 0.947513C24.0842 0.947513 24.2599 0.987891 24.42 1.06561C24.5801 1.14332 24.7205 1.25635 24.8306 1.39618C24.9407 1.53601 25.0177 1.699 25.0557 1.87288C25.0937 2.04676 25.0917 2.22699 25.05 2.4C24.9009 2.99267 24.9324 3.61635 25.1404 4.191C25.3484 4.76564 25.7234 5.26501 26.2172 5.625H21.5953C22.0887 5.26459 22.4633 4.76518 22.6712 4.19067C22.8791 3.61616 22.9109 2.99268 22.7625 2.4ZM19.6875 7.03125C19.6875 6.90693 19.7369 6.7877 19.8248 6.6998C19.9127 6.61189 20.0319 6.5625 20.1563 6.5625H27.6563C27.7806 6.5625 27.8998 6.61189 27.9877 6.6998C28.0756 6.7877 28.125 6.90693 28.125 7.03125V8.4375H19.6875V7.03125ZM12.9469 19.2188C12.864 19.2571 12.7942 19.3187 12.7459 19.3962C12.6976 19.4736 12.673 19.5634 12.675 19.6547C12.6773 19.7456 12.706 19.8339 12.7576 19.9088C12.8092 19.9838 12.8815 20.042 12.9656 20.0766C13.6815 20.3555 14.317 20.8076 14.8152 21.3924C15.3134 21.9772 15.6588 22.6765 15.8204 23.4276C15.9821 24.1786 15.9549 24.958 15.7414 25.696C15.5278 26.434 15.1346 27.1075 14.5969 27.6563C14.1617 28.1029 13.6411 28.4575 13.0662 28.6991C12.4912 28.9407 11.8736 29.0643 11.25 29.0625H7.96875C6.10395 29.0625 4.31552 28.3217 2.99691 27.0031C1.67829 25.6845 0.937502 23.8961 0.937502 22.0313V17.5688C1.86086 18.3317 3.021 18.7493 4.21875 18.75H6.59531C6.68628 18.7507 6.77549 18.725 6.85206 18.6758C6.92864 18.6267 6.98927 18.5564 7.02656 18.4734C7.06386 18.3904 7.07618 18.2984 7.06203 18.2085C7.04788 18.1186 7.00787 18.0347 6.94688 17.9672C6.22416 17.1575 5.77536 16.1404 5.6644 15.0608C5.55344 13.9812 5.78597 12.8941 6.32888 11.9543C6.87179 11.0145 7.69739 10.27 8.6881 9.82686C9.6788 9.38367 10.7841 9.2644 11.8465 9.48602C12.909 9.70763 13.8744 10.2588 14.6053 11.0611C15.3362 11.8634 15.7953 12.8759 15.9172 13.9544C16.0392 15.0328 15.8177 16.1222 15.2844 17.0675C14.751 18.0127 13.933 18.7655 12.9469 19.2188ZM16.2281 17.3438H16.1766C16.5556 16.6156 16.7836 15.8184 16.8469 15C17.4814 15.1787 18.1597 15.1152 18.75 14.8219C18.75 15.1531 18.6848 15.481 18.558 15.787C18.4313 16.0929 18.2455 16.3709 18.0114 16.6051C17.7772 16.8393 17.4992 17.025 17.1932 17.1518C16.8872 17.2785 16.5593 17.3438 16.2281 17.3438ZM29.0625 14.0625H27.1875C27.0632 14.0625 26.944 14.1119 26.856 14.1998C26.7681 14.2877 26.7188 14.4069 26.7188 14.5313C26.7188 14.6556 26.7681 14.7748 26.856 14.8627C26.944 14.9506 27.0632 15 27.1875 15H29.0625V16.875H27.1875C27.0632 16.875 26.944 16.9244 26.856 17.0123C26.7681 17.1002 26.7188 17.2194 26.7188 17.3438C26.7188 17.4681 26.7681 17.5873 26.856 17.6752C26.944 17.7631 27.0632 17.8125 27.1875 17.8125H29.0625V19.6875H27.1875C27.0632 19.6875 26.944 19.7369 26.856 19.8248C26.7681 19.9127 26.7188 20.0319 26.7188 20.1563C26.7188 20.2806 26.7681 20.3998 26.856 20.4877C26.944 20.5756 27.0632 20.625 27.1875 20.625H29.0625V22.5H27.1875C27.0632 22.5 26.944 22.5494 26.856 22.6373C26.7681 22.7252 26.7188 22.8444 26.7188 22.9688C26.7188 23.0931 26.7681 23.2123 26.856 23.3002C26.944 23.3881 27.0632 23.4375 27.1875 23.4375H29.0625V25.3125H27.1875C27.0632 25.3125 26.944 25.3619 26.856 25.4498C26.7681 25.5377 26.7188 25.6569 26.7188 25.7813C26.7188 25.9056 26.7681 26.0248 26.856 26.1127C26.944 26.2006 27.0632 26.25 27.1875 26.25H29.0625V28.5938C29.0625 28.7181 29.0131 28.8373 28.9252 28.9252C28.8373 29.0131 28.7181 29.0625 28.5938 29.0625H19.2188C19.0944 29.0625 18.9752 29.0131 18.8873 28.9252C18.7994 28.8373 18.75 28.7181 18.75 28.5938V17.1797C19.3494 16.5462 19.6846 15.708 19.6875 14.8359C19.6849 14.6739 19.6403 14.5154 19.5582 14.3757C19.476 14.236 19.3591 14.1201 19.2188 14.0391C19.0772 13.9532 18.9155 13.9063 18.75 13.9031V11.7188C18.75 11.0972 18.9969 10.501 19.4365 10.0615C19.876 9.62193 20.4722 9.375 21.0938 9.375H26.7188C27.3404 9.375 27.9365 9.62193 28.376 10.0615C28.8156 10.501 29.0625 11.0972 29.0625 11.7188V14.0625Z" fill="#A4ACAD"/>
<path d="M12.6563 12.1875C12.3781 12.1875 12.1062 12.27 11.875 12.4245C11.6437 12.579 11.4635 12.7986 11.357 13.0556C11.2506 13.3126 11.2228 13.5953 11.277 13.8681C11.3313 14.1409 11.4652 14.3915 11.6619 14.5881C11.8585 14.7848 12.1091 14.9187 12.3819 14.973C12.6547 15.0272 12.9374 14.9994 13.1944 14.893C13.4514 14.7865 13.671 14.6063 13.8255 14.375C13.98 14.1438 14.0625 13.8719 14.0625 13.5938C14.0625 13.2208 13.9143 12.8631 13.6506 12.5994C13.3869 12.3357 13.0292 12.1875 12.6563 12.1875ZM12.6563 14.0625C12.5635 14.0625 12.4729 14.035 12.3958 13.9835C12.3187 13.932 12.2587 13.8588 12.2232 13.7731C12.1877 13.6875 12.1784 13.5932 12.1965 13.5023C12.2146 13.4114 12.2592 13.3278 12.3248 13.2623C12.3903 13.1967 12.4739 13.1521 12.5648 13.134C12.6557 13.1159 12.75 13.1252 12.8356 13.1607C12.9213 13.1962 12.9945 13.2562 13.046 13.3333C13.0975 13.4104 13.125 13.501 13.125 13.5938C13.125 13.7181 13.0756 13.8373 12.9877 13.9252C12.8998 14.0131 12.7806 14.0625 12.6563 14.0625Z" fill="#A4ACAD"/>
</g>
<defs>
<clipPath id="clip0_1135_1315">
<rect width="30" height="30" fill="white"/>
</clipPath>
</defs>
</svg>
