<svg width="30" height="30" viewBox="0 0 30 30" fill="none" xmlns="http://www.w3.org/2000/svg">
<g clip-path="url(#clip0_1135_1252)">
<path d="M22.0354 17.914C21.9322 17.8256 21.78 17.8256 21.6768 17.914L20.3729 19.2179C20.2651 19.3254 20.2584 19.4935 20.3659 19.6013C20.3661 19.6015 20.3663 19.6017 20.3729 19.5955C20.4801 19.7036 20.6546 19.7043 20.7628 19.5971C20.7633 19.5966 20.7639 19.5961 20.7644 19.5955L22.0655 18.3027C22.1646 18.187 22.1511 18.013 22.0354 17.914Z" fill="#A4ACAD"/>
<path d="M22.9032 17.0659C22.796 16.9578 22.6215 16.9571 22.5134 17.0643C22.5128 17.0649 22.5123 17.0654 22.5118 17.0659L22.3574 17.2203C22.2493 17.3275 22.2486 17.502 22.3558 17.6101C22.408 17.6627 22.4791 17.6921 22.5531 17.6917C22.6268 17.6914 22.6973 17.6615 22.7489 17.609L22.9032 17.4546C23.0101 17.3471 23.0101 17.1734 22.9032 17.0659Z" fill="#A4ACAD"/>
<path d="M14.6389 14.5573C14.5398 14.4416 14.3658 14.4282 14.2502 14.5272C14.2394 14.5365 14.2294 14.5465 14.2201 14.5573L13.1533 15.6131C13.0452 15.7203 13.0445 15.8948 13.1517 16.0029C13.1523 16.0035 13.1528 16.004 13.1533 16.0045C13.2028 16.0595 13.2723 16.0923 13.3463 16.0955C13.4195 16.0959 13.49 16.0672 13.542 16.0156L14.6088 14.946C14.7244 14.8469 14.7379 14.6729 14.6389 14.5573Z" fill="#A4ACAD"/>
<path d="M15.681 13.4786C15.5735 13.3717 15.3999 13.3717 15.2924 13.4786L14.9312 13.8397C14.8244 13.9472 14.8244 14.1209 14.9312 14.2284C14.9833 14.28 15.0537 14.3088 15.127 14.3084C15.1993 14.3081 15.2686 14.2793 15.3199 14.2284L15.681 13.8673C15.7879 13.7598 15.7879 13.5861 15.681 13.4786Z" fill="#A4ACAD"/>
<path d="M14.1703 20.0975C14.0671 20.0092 13.9149 20.0092 13.8117 20.0975L13.2603 20.6488C13.1535 20.7564 13.1535 20.93 13.2603 21.0375C13.3679 21.1444 13.5415 21.1444 13.649 21.0375L14.2004 20.4862C14.2994 20.3706 14.286 20.1965 14.1703 20.0975Z" fill="#A4ACAD"/>
<path d="M20.6819 13.5858C20.5787 13.4974 20.4265 13.4975 20.3232 13.5858L14.9312 18.9778C14.8244 19.0853 14.8244 19.259 14.9312 19.3665C14.9833 19.4181 15.0537 19.4469 15.127 19.4465C15.1993 19.4462 15.2686 19.4174 15.3199 19.3665L20.7119 13.9745C20.811 13.8589 20.7975 13.6849 20.6819 13.5858Z" fill="#A4ACAD"/>
<path d="M22.9032 18.7378C22.796 18.6297 22.6215 18.629 22.5133 18.7362C22.5128 18.7367 22.5122 18.7372 22.5117 18.7378L20.3726 20.8769C20.2653 20.985 20.2658 21.1597 20.374 21.267C20.4821 21.3743 20.6567 21.3737 20.764 21.2656L22.9032 19.1265C23.0101 19.019 23.0101 18.8453 22.9032 18.7378Z" fill="#A4ACAD"/>
<path d="M28.8386 26.4308H22.4983C27.6085 23.9263 29.7209 17.7533 27.2164 12.6431C24.7119 7.53289 18.539 5.42054 13.4288 7.92502C12.2504 8.50254 11.1932 9.29983 10.314 10.274V9.28715C10.3012 8.98296 10.0442 8.74671 9.73997 8.75946C9.61006 8.76491 9.48629 8.81611 9.3905 8.90398L6.82681 11.4677C6.62041 11.6701 6.50504 11.9477 6.50704 12.2368V16.0961H6.4905C6.33826 16.0961 6.21483 16.2195 6.21483 16.3717V17.9596C6.21353 17.9724 6.21353 17.9853 6.21483 17.9982C5.87404 18.2108 5.66592 18.5833 5.6635 18.985V21.1132H4.97434V19.7018C4.97434 19.5495 4.85091 19.4261 4.69868 19.4261H4.37064V17.9458C4.37064 17.7936 4.24721 17.6701 4.09497 17.6701H3.20733V7.88402H3.69801C3.85025 7.88402 3.97368 7.76059 3.97368 7.60835C3.97368 7.45612 3.85025 7.33269 3.69801 7.33269H3.20733V6.60218H4.30999C4.46223 6.60218 4.58565 6.47875 4.58565 6.32651C4.58565 6.17428 4.46223 6.05085 4.30999 6.05085H3.20733V5.32033H4.30999C4.46223 5.32033 4.58565 5.19691 4.58565 5.04467C4.58565 4.89243 4.46223 4.769 4.30999 4.769H3.20733V4.03849H4.30999C4.46223 4.03849 4.58565 3.91506 4.58565 3.76283C4.58565 3.61059 4.46223 3.48716 4.30999 3.48716H3.20733V2.75665H4.30999C4.46223 2.75665 4.58565 2.63322 4.58565 2.48098C4.58565 2.32875 4.46223 2.20532 4.30999 2.20532H3.20733V1.48583H3.69801C3.85025 1.48583 3.97368 1.36241 3.97368 1.21017C3.97368 1.05793 3.85025 0.934504 3.69801 0.934504H3.20733V0.275665C3.20733 0.123429 3.0839 0 2.93166 0C2.77943 0 2.656 0.123429 2.656 0.275665V0.934504H2.15429C2.00205 0.934504 1.87862 1.05793 1.87862 1.21017C1.87862 1.36241 2.00205 1.48583 2.15429 1.48583H2.656V2.21635H1.55334C1.4011 2.21635 1.27767 2.33978 1.27767 2.49201C1.27767 2.64425 1.4011 2.76768 1.55334 2.76768H2.656V3.49819H1.55334C1.4011 3.49819 1.27767 3.62162 1.27767 3.77385C1.27767 3.92609 1.4011 4.04952 1.55334 4.04952H2.656V4.78003H1.55334C1.4011 4.78003 1.27767 4.90346 1.27767 5.0557C1.27767 5.20793 1.4011 5.33136 1.55334 5.33136H2.656V6.06187H1.55334C1.4011 6.06187 1.27767 6.1853 1.27767 6.33754C1.27767 6.48977 1.4011 6.6132 1.55334 6.6132H2.656V7.34372H2.15429C2.00205 7.34372 1.87862 7.46714 1.87862 7.61938C1.87862 7.77162 2.00205 7.89504 2.15429 7.89504H2.656V17.6812H1.76836C1.61612 17.6812 1.49269 17.8046 1.49269 17.9568V19.4371H1.1619C1.00966 19.4371 0.88623 19.5606 0.88623 19.7128V29.7222C0.88623 29.8744 1.00966 29.9979 1.1619 29.9979H9.96388C10.0144 30.0007 10.065 30.0007 10.1155 29.9979C10.132 29.9994 10.1486 29.9994 10.1651 29.9979H26.0462C27.7401 29.9963 29.1128 28.6236 29.1143 26.9297V26.7064C29.1143 26.5542 28.9909 26.4308 28.8386 26.4308ZM10.314 11.1341C12.1545 8.78 14.9782 7.40677 17.9664 7.41263V7.40987C23.3544 7.40719 27.7244 11.7728 27.727 17.1608C27.7291 21.3735 25.027 25.1116 21.0263 26.4308H14.9038C13.491 25.9605 12.2041 25.1743 11.141 24.1317V21.9677C13.7933 25.7384 19 26.6449 22.7707 23.9926C26.5413 21.3403 27.4478 16.1335 24.7955 12.3629C22.1432 8.59227 16.9364 7.68575 13.1658 10.3381C11.9121 11.22 10.9254 12.43 10.314 13.8356V11.1341ZM13.4593 26.4308H11.141V24.8843C11.8404 25.502 12.6203 26.0222 13.4593 26.4308ZM7.05837 12.2368C7.0583 12.0979 7.11385 11.9649 7.21274 11.8674L9.76264 9.28715V16.0961H7.05837V12.2368ZM6.76616 16.6474H10.0383V17.8217C10.0107 17.8202 9.98317 17.8202 9.95561 17.8217H6.84886C6.8213 17.8217 6.79373 17.8217 6.76616 17.8217V16.6474ZM2.04395 18.2215H3.81924V19.4261H2.04395V18.2215ZM2.83243 22.2848V29.4355H1.43756V19.9774H4.42301V21.1132H4.004C3.35757 21.1147 2.83387 21.6383 2.83243 22.2848ZM7.73926 29.4135H3.38376V27.1447L4.82824 26.111C4.95925 26.0334 5.00253 25.8643 4.92493 25.7333C4.84733 25.6023 4.67828 25.559 4.54727 25.6366C4.53355 25.6448 4.52053 25.6541 4.50847 25.6644L3.38376 26.4666V25.6975L4.82824 24.6637C4.95925 24.5861 5.00253 24.4171 4.92493 24.2861C4.84733 24.1551 4.67828 24.1118 4.54727 24.1894C4.53355 24.1975 4.52053 24.2068 4.50847 24.2172L3.38376 25.0194V22.2627C3.38376 21.9201 3.66142 21.6425 4.004 21.6425H7.11902C7.4616 21.6425 7.73926 21.9201 7.73926 22.2627V29.4135ZM10.5896 24.2475V28.8153C10.5896 29.1563 10.3132 29.4327 9.97215 29.4327C9.97125 29.4327 9.97029 29.4327 9.96939 29.4327H8.29059V22.2848C8.29059 21.6377 7.76607 21.1132 7.11902 21.1132H6.22862L6.21483 18.985C6.21483 18.6425 6.4925 18.3648 6.83508 18.3648H9.9501C10.2925 18.3541 10.5787 18.623 10.5894 18.9654C10.5896 18.9747 10.5897 18.984 10.5896 18.9933V24.2475ZM10.5896 18.0175C10.5896 18.0037 10.5896 17.9927 10.5896 17.9789V16.3717C10.5896 16.2195 10.4662 16.0961 10.314 16.0961V15.6853L10.3884 15.3408C11.3975 11.1536 15.6099 8.57732 19.7971 9.58646C23.9842 10.5956 26.5605 14.808 25.5514 18.9951C24.5422 23.1823 20.3298 25.7585 16.1427 24.7494C14.0137 24.2363 12.1985 22.8517 11.141 20.934V19.0043C11.139 18.6025 10.9308 18.2298 10.5896 18.0175ZM26.0462 29.4327V29.4217H10.9563C11.0732 29.238 11.1353 29.0248 11.1355 28.807V26.9711H28.5602C28.5288 28.3378 27.4132 29.4301 26.0462 29.4327Z" fill="#A4ACAD"/>
<path d="M26.5117 27.6562H25.5027C25.3505 27.6562 25.2271 27.7797 25.2271 27.9319C25.2271 28.0842 25.3505 28.2076 25.5027 28.2076H26.5117C26.6639 28.2076 26.7873 28.0842 26.7873 27.9319C26.7873 27.7797 26.6639 27.6562 26.5117 27.6562Z" fill="#A4ACAD"/>
<path d="M24.0805 27.6562H19.5017C19.3495 27.6562 19.2261 27.7797 19.2261 27.9319C19.2261 28.0842 19.3495 28.2076 19.5017 28.2076H24.0805C24.2328 28.2076 24.3562 28.0842 24.3562 27.9319C24.3562 27.7797 24.2328 27.6562 24.0805 27.6562Z" fill="#A4ACAD"/>
<path d="M7.81326 12.3477C7.66103 12.3477 7.5376 12.4711 7.5376 12.6233V14.7404C7.5376 14.8927 7.66103 15.0161 7.81326 15.0161C7.9655 15.0161 8.08893 14.8927 8.08893 14.7404V12.6233C8.08893 12.4711 7.9655 12.3477 7.81326 12.3477Z" fill="#A4ACAD"/>
</g>
<defs>
<clipPath id="clip0_1135_1252">
<rect width="30" height="30" fill="white"/>
</clipPath>
</defs>
</svg>
