<svg width="30" height="30" viewBox="0 0 30 30" fill="none" xmlns="http://www.w3.org/2000/svg">
<path d="M16.1719 6.79688C16.1719 7.12051 15.9096 7.38281 15.5859 7.38281C15.2623 7.38281 15 7.12051 15 6.79688C15 6.47324 15.2623 6.21094 15.5859 6.21094C15.9096 6.21094 16.1719 6.47324 16.1719 6.79688Z" fill="#A4ACAD"/>
<path d="M28.2422 8.55469H27.6562V5.625C27.6562 4.65569 26.8678 3.86719 25.8984 3.86719H5.27344C4.30412 3.86719 3.51562 4.65569 3.51562 5.625V12.0703H1.75781C0.788498 12.0703 0 12.8588 0 13.8281V24.375C0 25.3443 0.788498 26.1328 1.75781 26.1328H7.61719C8.5865 26.1328 9.375 25.3443 9.375 24.375V20.2734H13.2422V22.6758C12.6833 22.7886 12.1694 23.0628 11.7567 23.4755C11.2033 24.0289 10.8984 24.7646 10.8984 25.5469C10.8984 25.8705 11.1607 26.1328 11.4844 26.1328H19.6875C20.0111 26.1328 20.2734 25.8705 20.2734 25.5469C20.2734 24.1322 19.2654 22.9484 17.9297 22.6762V20.2734H21.7969V24.375C21.7969 25.3443 22.5854 26.1328 23.5547 26.1328H28.2422C29.2115 26.1328 30 25.3443 30 24.375V10.3125C30 9.34319 29.2115 8.55469 28.2422 8.55469ZM4.6875 7.38281H13.2422C13.5658 7.38281 13.8281 7.12051 13.8281 6.79688C13.8281 6.47324 13.5658 6.21094 13.2422 6.21094H4.6875V5.625C4.6875 5.30182 4.95026 5.03906 5.27344 5.03906H25.8984C26.2216 5.03906 26.4844 5.30182 26.4844 5.625V6.21094H17.9297C17.606 6.21094 17.3438 6.47324 17.3438 6.79688C17.3438 7.12051 17.606 7.38281 17.9297 7.38281H26.4844V8.55469H23.5547C22.5854 8.55469 21.7969 9.34319 21.7969 10.3125V16.7578H9.375V13.8281C9.375 12.8588 8.5865 12.0703 7.61719 12.0703H4.6875V7.38281ZM1.17188 15.5859H8.20312V22.6172H1.17188V15.5859ZM1.75781 13.2422H7.61719C7.94037 13.2422 8.20312 13.5049 8.20312 13.8281V14.4141H1.17188V13.8281C1.17188 13.5049 1.43463 13.2422 1.75781 13.2422ZM7.61719 24.9609H1.75781C1.43463 24.9609 1.17188 24.6982 1.17188 24.375V23.7891H8.20312V24.375C8.20312 24.6982 7.94037 24.9609 7.61719 24.9609ZM19.0011 24.9609H12.1701C12.2562 24.7167 12.3967 24.4929 12.5855 24.304C12.9176 23.9719 13.3589 23.7891 13.8281 23.7891H17.3438C18.1075 23.7891 18.7594 24.2789 19.0011 24.9609ZM16.7578 22.6172H14.4141V20.2734H16.7578V22.6172ZM9.375 19.1016V17.9297H21.7969V19.1016H9.375ZM28.8281 24.375C28.8281 24.6982 28.5654 24.9609 28.2422 24.9609H23.5547C23.2315 24.9609 22.9688 24.6982 22.9688 24.375V10.3125C22.9688 9.98932 23.2315 9.72656 23.5547 9.72656H28.2422C28.5654 9.72656 28.8281 9.98932 28.8281 10.3125V24.375Z" fill="#A4ACAD"/>
<path d="M27.0703 17.9297H24.7266C24.4029 17.9297 24.1406 18.192 24.1406 18.5156V23.2031C24.1406 23.5268 24.4029 23.7891 24.7266 23.7891H27.0703C27.394 23.7891 27.6562 23.5268 27.6562 23.2031V18.5156C27.6562 18.192 27.394 17.9297 27.0703 17.9297ZM26.4844 22.6172H25.3125V19.1016H26.4844V22.6172Z" fill="#A4ACAD"/>
<path d="M27.0703 12.0703H24.7266C24.4029 12.0703 24.1406 12.3326 24.1406 12.6562C24.1406 12.9799 24.4029 13.2422 24.7266 13.2422H27.0703C27.394 13.2422 27.6562 12.9799 27.6562 12.6562C27.6562 12.3326 27.394 12.0703 27.0703 12.0703Z" fill="#A4ACAD"/>
<path d="M27.0703 14.4141H24.7266C24.4029 14.4141 24.1406 14.6764 24.1406 15C24.1406 15.3236 24.4029 15.5859 24.7266 15.5859H27.0703C27.394 15.5859 27.6562 15.3236 27.6562 15C27.6562 14.6764 27.394 14.4141 27.0703 14.4141Z" fill="#A4ACAD"/>
</svg>
