<svg width="34" height="34" viewBox="0 0 34 34" fill="none" xmlns="http://www.w3.org/2000/svg">
<path d="M7.0835 18.0775C7.0835 16.154 7.0835 15.1923 7.47232 14.3469C7.86114 13.5015 8.59135 12.8756 10.0518 11.6238L11.4684 10.4095C14.1081 8.14692 15.428 7.01563 17.0002 7.01562C18.5723 7.01562 19.8922 8.14692 22.5319 10.4095L23.9486 11.6238C25.409 12.8756 26.1392 13.5015 26.528 14.3469C26.9168 15.1923 26.9168 16.154 26.9168 18.0775V24.0847C26.9168 26.756 26.9168 28.0917 26.087 28.9215C25.2571 29.7514 23.9215 29.7514 21.2502 29.7514H12.7502C10.0789 29.7514 8.74322 29.7514 7.91336 28.9215C7.0835 28.0917 7.0835 26.756 7.0835 24.0847V18.0775Z" stroke="#FD9803"/>
<path d="M20.5418 29.75V22.25C20.5418 21.6977 20.0941 21.25 19.5418 21.25H14.4585C13.9062 21.25 13.4585 21.6977 13.4585 22.25V29.75" stroke="#FD9803" stroke-linecap="round" stroke-linejoin="round"/>
</svg>
