<svg width="30" height="30" viewBox="0 0 30 30" fill="none" xmlns="http://www.w3.org/2000/svg">
<path d="M0.62499 7.12606H2.41021V5.7827C2.41021 5.53235 2.55957 5.30618 2.78986 5.20786C6.56012 3.59841 11.1988 4.28053 15 6.97663C18.8012 4.28053 23.44 3.5986 27.2101 5.20786C27.4404 5.30618 27.5898 5.53235 27.5898 5.7827V7.12606H29.375C29.7201 7.12606 30 7.40586 30 7.75105V25.0263C30 25.3715 29.7201 25.6513 29.375 25.6513H15H0.62499C0.279804 25.6513 0 25.3714 0 25.0263V7.75111C0 7.40593 0.279804 7.12606 0.62499 7.12606ZM28.75 24.4013V8.3761H27.5898V23.0579C27.5898 23.2679 27.4844 23.4637 27.3092 23.5795C27.134 23.6951 26.9126 23.715 26.7195 23.6327C23.7919 22.383 20.2565 22.6955 17.1186 24.4013H28.75ZM15.625 23.8313C17.9061 22.3776 20.4435 21.6229 22.8929 21.6229C24.0754 21.6229 25.2372 21.7988 26.3397 22.1569V7.75835C26.3397 7.75587 26.3394 7.75352 26.3394 7.75111C26.3394 7.7487 26.3397 7.74629 26.3397 7.74388V6.20546C23.0061 4.95598 18.964 5.65473 15.625 8.06627V23.8313ZM14.375 8.06627C11.036 5.65467 6.9936 4.95598 3.66019 6.20546V7.74381C3.66019 7.74622 3.66057 7.74864 3.66057 7.75105C3.66057 7.75346 3.66025 7.75587 3.66019 7.75828V22.1568C7.04654 21.0568 10.9927 21.6759 14.375 23.8312V8.06627ZM1.24998 24.4013H12.8814C9.74347 22.6955 6.20814 22.383 3.28053 23.6327C3.08744 23.7152 2.86578 23.6952 2.69077 23.5795C2.51558 23.4637 2.41021 23.2678 2.41021 23.0579V8.3761H1.24998V24.4013Z" fill="#A4ACAD"/>
</svg>
