<svg width="30" height="30" viewBox="0 0 30 30" fill="none" xmlns="http://www.w3.org/2000/svg">
<path d="M26.5599 8.8447L19.237 5.91535L19.2346 5.90957L15.4841 4.50343V2.41941C15.4841 1.08532 14.3988 0 13.0648 0C11.7308 0 10.6454 1.08532 10.6454 2.41941V2.90333H11.6131V2.41941C11.6131 1.6191 12.2644 0.967742 13.0648 0.967742C13.8652 0.967742 14.5164 1.61899 14.5164 2.41941V4.50343L10.7659 5.90957L10.7636 5.91535L3.44053 8.8447L1.36816 20.761L7.25833 21.2516V30H22.7422V21.2516L28.6323 20.761L26.5599 8.8447ZM19.6588 9.35659L16.3061 10.2711L18.7444 7.22323L19.6588 9.35659ZM15.0002 5.35546L18.0761 6.50901L15.0002 10.3544L11.9242 6.50901L15.0002 5.35546ZM11.2561 7.22323L13.6943 10.2712L10.3415 9.3567L11.2561 7.22323ZM7.25823 20.2805L2.50323 19.8842L2.675 18.8961L7.25823 19.3127V20.2805ZM22.7421 18.3412V13.5484V13.0645H21.7744V13.5484V21.3324V29.0323H8.22607V21.3324V13.5484V13.0645H7.25833V13.5484V18.3412L2.84151 17.9395L4.30184 9.5424L10.2244 7.17337L9.01379 9.99773L14.5163 11.4987V27.0968H15.4841V11.4987L20.9866 9.99825L19.776 7.17388L25.6986 9.54292L27.1589 17.94L22.7421 18.3412ZM22.7422 19.3127L27.3254 18.8961L27.4972 19.8842L22.7422 20.2805V19.3127Z" fill="#A4ACAD"/>
</svg>
