<svg width="24" height="21" viewBox="0 0 24 21" fill="none" xmlns="http://www.w3.org/2000/svg">
<g clip-path="url(#clip0_1144_1848)">
<path d="M21 8.50671C21 14.3848 12 19.4231 12 19.4231C12 19.4231 3 14.3848 3 8.50671C3 6.50234 3.94821 4.58006 5.63604 3.16276C7.32387 1.74545 9.61305 0.949219 12 0.949219C14.3869 0.949219 16.6761 1.74545 18.364 3.16276C20.0518 4.58006 21 6.50234 21 8.50671Z" stroke="black" stroke-linecap="round" stroke-linejoin="round"/>
<path d="M12 11.0266C13.6569 11.0266 15 9.89874 15 8.50745C15 7.11615 13.6569 5.98828 12 5.98828C10.3431 5.98828 9 7.11615 9 8.50745C9 9.89874 10.3431 11.0266 12 11.0266Z" stroke="black" stroke-linecap="round" stroke-linejoin="round"/>
</g>
<defs>
<clipPath id="clip0_1144_1848">
<rect width="24" height="20.1533" fill="white" transform="translate(0 0.109375)"/>
</clipPath>
</defs>
</svg>
