<svg width="30" height="30" viewBox="0 0 30 30" fill="none" xmlns="http://www.w3.org/2000/svg">
<path d="M4.66357 6.90073V4.4082C4.66357 4.16536 4.46674 3.96875 4.22412 3.96875C3.98128 3.96875 3.78467 4.16536 3.78467 4.4082V6.90073C3.78467 7.14357 3.98128 7.34018 4.22412 7.34018C4.46674 7.34018 4.66357 7.14357 4.66357 6.90073Z" fill="#A4ACAD"/>
<path d="M4.22412 12.3789C3.98128 12.3789 3.78467 12.5755 3.78467 12.8184V15.3109C3.78467 15.5537 3.98128 15.7503 4.22412 15.7503C4.46674 15.7503 4.66357 15.5537 4.66357 15.3109V12.8184C4.66357 12.5757 4.46674 12.3789 4.22412 12.3789Z" fill="#A4ACAD"/>
<path d="M28.3184 20.8427C28.5612 20.8427 28.7579 20.6458 28.7579 20.4032V18.3808C28.7579 17.5685 28.0968 16.9075 27.2843 16.9075H22.5151C22.5135 16.9075 22.5119 16.9073 22.5105 16.9073H20.0127V1.20575C20.0127 0.540848 19.4717 0 18.807 0H2.43645C1.77155 0 1.23047 0.540848 1.23047 1.20575V3.53027C1.23047 3.77312 1.42731 3.96973 1.66992 3.96973C1.91277 3.96973 2.10938 3.77312 2.10938 3.53027V1.20575C2.10938 1.02562 2.25609 0.878906 2.43645 0.878906H18.807C18.9871 0.878906 19.1338 1.02562 19.1338 1.20575V8.30841H2.10938V5.28809C2.10938 5.04524 1.91277 4.84863 1.66992 4.84863C1.42731 4.84863 1.23047 5.04524 1.23047 5.28809V8.74329V8.74786V11.25V11.2546V26.7586C1.23047 27.4235 1.77155 27.9646 2.43645 27.9646H2.7253V29.4434C2.7253 29.7503 2.97501 30 3.28194 30H4.73808C5.04112 30 5.28854 29.7565 5.29449 29.4548H6.85455C7.0974 29.4548 7.29401 29.2582 7.29401 29.0154C7.29401 28.7727 7.0974 28.5759 6.85455 28.5759H4.97246C4.66942 28.5759 4.422 28.8194 4.41582 29.1211H3.6042V27.9646H8.12897V28.5265C8.12897 29.339 8.78998 30 9.60251 30H27.2843C28.0968 30 28.7579 29.339 28.7579 28.5265V22.1608C28.7579 21.9182 28.5612 21.7213 28.3184 21.7213C28.0758 21.7213 27.879 21.9182 27.879 22.1608V28.5265C27.879 28.8544 27.6123 29.1211 27.2843 29.1211H22.95V17.7864H27.2843C27.6123 17.7864 27.879 18.0531 27.879 18.3808V20.4032C27.879 20.6458 28.0758 20.8427 28.3184 20.8427ZM19.1336 9.18732V9.61899H6.55609C6.37619 9.61899 6.20705 9.68903 6.07956 9.81651L5.08553 10.8105H2.10938V9.18732H19.1336ZM2.43645 27.0856C2.25609 27.0856 2.10938 26.9389 2.10938 26.7586V11.6895H5.17044C5.35057 11.6895 5.51971 11.6194 5.64697 11.4922L6.64101 10.4979H19.1338V16.9073H9.60251C8.8472 16.9073 8.22281 17.4788 8.13858 18.2119C8.13217 18.2675 8.12897 18.3238 8.12897 18.381V27.0856H2.43645ZM22.0711 29.1211H9.60251C9.27452 29.1211 9.00787 28.8542 9.00787 28.5265V18.381C9.00787 18.0531 9.27475 17.7864 9.60251 17.7864H22.0711V29.1211Z" fill="#A4ACAD"/>
<path d="M9.4126 28.0427C9.4126 28.4142 9.71495 28.7165 10.0864 28.7165H20.992C21.3637 28.7165 21.6658 28.4142 21.6658 28.0427V18.8652C21.6658 18.4938 21.3637 18.1914 20.992 18.1914H12.9678C12.7252 18.1914 12.5284 18.3882 12.5284 18.6309C12.5284 18.8737 12.7252 19.0703 12.9678 19.0703H20.7869V27.8376H10.2915V19.0703H11.21C11.4526 19.0703 11.6495 18.8737 11.6495 18.6309C11.6495 18.3882 11.4526 18.1914 11.21 18.1914H10.0864C9.71495 18.1914 9.4126 18.4938 9.4126 18.8652V28.0427Z" fill="#A4ACAD"/>
<path d="M26.8654 21.2829C26.8654 20.483 26.2147 19.832 25.4145 19.832C24.6146 19.832 23.9639 20.483 23.9639 21.2829C23.9639 22.0829 24.6146 22.7338 25.4145 22.7338C26.2147 22.7338 26.8654 22.0829 26.8654 21.2829ZM24.8428 21.2829C24.8428 20.9675 25.0993 20.7109 25.4145 20.7109C25.7299 20.7109 25.9865 20.9675 25.9865 21.2829C25.9865 21.5983 25.7299 21.8549 25.4145 21.8549C25.0993 21.8549 24.8428 21.5983 24.8428 21.2829Z" fill="#A4ACAD"/>
<path d="M24.6991 23.9336H24.2656C24.023 23.9336 23.8262 24.1302 23.8262 24.373C23.8262 24.6157 24.023 24.8125 24.2656 24.8125H24.6991C24.9417 24.8125 25.1386 24.6157 25.1386 24.373C25.1386 24.1302 24.9417 23.9336 24.6991 23.9336Z" fill="#A4ACAD"/>
<path d="M26.5629 23.9336H26.1294C25.8868 23.9336 25.6899 24.1302 25.6899 24.373C25.6899 24.6157 25.8868 24.8125 26.1294 24.8125H26.5629C26.8055 24.8125 27.0023 24.6157 27.0023 24.373C27.0023 24.1302 26.8055 23.9336 26.5629 23.9336Z" fill="#A4ACAD"/>
<path d="M24.6991 25.6094H24.2656C24.023 25.6094 23.8262 25.806 23.8262 26.0488C23.8262 26.2917 24.023 26.4883 24.2656 26.4883H24.6991C24.9417 26.4883 25.1386 26.2917 25.1386 26.0488C25.1386 25.806 24.9417 25.6094 24.6991 25.6094Z" fill="#A4ACAD"/>
<path d="M26.5629 25.6094H26.1294C25.8868 25.6094 25.6899 25.806 25.6899 26.0488C25.6899 26.2917 25.8868 26.4883 26.1294 26.4883H26.5629C26.8055 26.4883 27.0023 26.2917 27.0023 26.0488C27.0023 25.806 26.8055 25.6094 26.5629 25.6094Z" fill="#A4ACAD"/>
</svg>
