<svg width="30" height="30" viewBox="0 0 30 30" fill="none" xmlns="http://www.w3.org/2000/svg">
<g clip-path="url(#clip0_1135_1296)">
<path d="M29.0808 16.8099C27.6648 15.8657 26.4934 15.8777 24.158 16.1303C21.8551 16.3791 16.8595 14.9151 15.4605 13.8076C14.3199 12.9046 11.679 9.4478 10.5966 8.00342C10.2349 7.52083 9.66181 7.25895 9.06701 7.29101L8.54356 6.62467C8.32681 6.34871 8.00144 6.17999 7.65105 6.16169C7.30072 6.14415 6.95951 6.27736 6.71516 6.52912L5.77041 7.50266C4.42957 7.42748 3.56063 7.13046 3.07521 6.89988C2.68264 6.71343 2.23148 6.74172 1.86826 6.97563C1.50951 7.20665 1.29968 7.59991 1.30684 8.02756C1.3433 10.1934 1.3042 14.1462 0.632965 16.2857C-0.00256807 18.3114 -0.160477 20.3499 0.163576 22.3445C0.171245 22.3915 0.177468 22.4298 0.18168 22.459C0.200727 22.5922 0.302375 22.6986 0.434636 22.7235C3.37582 23.2775 7.83725 23.8416 13.8146 23.8415C15.8239 23.8415 18.0058 23.7777 20.3571 23.6284L20.4334 23.6235C23.9522 23.4006 26.8951 22.552 29.1805 21.101C29.5662 20.8561 29.8318 20.4553 29.9092 20.0013C30.0602 19.1163 30.1532 17.5248 29.0808 16.8099ZM28.4683 17.1675C28.2607 17.4223 27.7942 17.8716 26.8255 18.3536C26.236 18.647 25.5739 18.8957 24.8686 19.1068C24.5532 18.5175 24.4926 17.3747 24.4986 16.7264C26.5154 16.5196 27.444 16.565 28.4683 17.1675ZM21.5801 17.4233L21.7241 16.6155C21.8497 16.6355 21.9741 16.6541 22.0969 16.6709L21.9512 17.4899C21.9424 17.5393 21.9149 17.5824 21.8737 17.6112C21.8324 17.64 21.7821 17.651 21.7325 17.642C21.6422 17.6259 21.5767 17.5482 21.5767 17.4573C21.5767 17.4462 21.5776 17.4364 21.5801 17.4233ZM19.0256 17.0987L19.5284 16.1418C19.653 16.175 19.7781 16.2074 19.9033 16.2387L19.3591 17.2743C19.3357 17.3188 19.2965 17.3515 19.2484 17.3665C19.2003 17.3814 19.1495 17.3767 19.1049 17.3533C19.0426 17.3205 19.0038 17.2563 19.0038 17.1858C19.0038 17.1557 19.0113 17.1261 19.0256 17.0987ZM17.6111 15.5439L16.5801 16.7136C16.5115 16.7916 16.3922 16.799 16.3144 16.7307C16.2737 16.6948 16.2504 16.6432 16.2504 16.5892C16.2504 16.5433 16.2671 16.499 16.2977 16.4644L17.232 15.4028C17.3558 15.4503 17.4824 15.4974 17.6111 15.5439ZM15.5216 14.6054L14.2131 15.657C14.1322 15.722 14.0129 15.7089 13.9477 15.628C13.9135 15.5854 13.9063 15.5406 13.9063 15.5105C13.9063 15.4525 13.932 15.3987 13.9768 15.3627L15.1888 14.3891C15.2881 14.4605 15.3994 14.5326 15.5216 14.6054ZM14.701 13.9747L13.5833 14.8725C13.3891 15.0282 13.2777 15.2608 13.2777 15.5105C13.2777 15.6956 13.3416 15.8771 13.4579 16.022C13.6192 16.2224 13.8566 16.3266 14.096 16.3266C14.2755 16.3266 14.4562 16.2679 14.6068 16.1472L16.1246 14.9273C16.2793 15.0024 16.4436 15.0774 16.6157 15.1518L15.8261 16.0489C15.6943 16.1982 15.6218 16.3902 15.6218 16.5893C15.6218 16.8236 15.7226 17.0469 15.8989 17.2025C16.0495 17.3349 16.2391 17.4063 16.4377 17.4062C16.4553 17.4062 16.473 17.4057 16.4907 17.4046C16.7086 17.3907 16.908 17.2928 17.052 17.1289L18.2544 15.7647C18.4689 15.8347 18.6878 15.9026 18.9095 15.968L18.4685 16.8074C18.4074 16.9246 18.3752 17.0555 18.3752 17.1859C18.3752 17.4906 18.5426 17.7679 18.812 17.9097C18.931 17.9724 19.0607 18.0042 19.1914 18.0042C19.2729 18.0042 19.355 17.9918 19.435 17.9669C19.6436 17.902 19.8144 17.7597 19.9156 17.5666L20.5351 16.3879C20.7261 16.4301 20.9163 16.4697 21.105 16.5062L20.9617 17.3098C20.9526 17.3579 20.948 17.4076 20.948 17.4575C20.948 17.8534 21.2315 18.1913 21.6218 18.261C21.6704 18.2697 21.7193 18.274 21.7677 18.274C21.9332 18.274 22.0945 18.2236 22.2332 18.1269C22.4124 18.0019 22.532 17.8146 22.5701 17.5999L22.7226 16.7428C23.1355 16.7804 23.5222 16.7946 23.8692 16.7809C23.8664 17.2564 23.8941 18.0992 24.0889 18.8093C22.5105 18.7607 17.1331 18.4863 14.2804 16.9821C11.4107 15.469 8.47617 9.68428 7.70819 8.08822C8.18802 8.04679 8.62082 7.98858 8.9763 7.93125C9.14716 7.90359 9.31752 7.91478 9.47738 7.95942L9.06418 8.16642C8.78564 8.30572 8.61265 8.5859 8.61265 8.89763C8.61265 9.02625 8.64194 9.14958 8.6994 9.26349C8.8426 9.54919 9.13163 9.71458 9.43123 9.71452C9.55407 9.71452 9.67866 9.6868 9.79571 9.62808L10.6952 9.17736C10.9124 9.46282 11.1437 9.76405 11.3832 10.0725L10.4038 10.5633C10.1252 10.7026 9.95223 10.9828 9.95223 11.2946C9.95223 11.4233 9.98153 11.5466 10.039 11.6604C10.1822 11.9462 10.4713 12.1116 10.7711 12.1116C10.894 12.1116 11.0187 12.0838 11.1359 12.025L12.4184 11.3821C12.6234 11.6361 12.8282 11.8863 13.0299 12.1284L11.8351 12.8542C11.5922 13.0011 11.4414 13.2689 11.4414 13.5532C11.4414 13.7029 11.4825 13.8496 11.5601 13.9772C11.6733 14.1636 11.8524 14.2949 12.0643 14.3467C12.1292 14.3625 12.1948 14.3704 12.2598 14.3704C12.4077 14.3704 12.5532 14.3299 12.6826 14.2512L14.1194 13.3789C14.3276 13.6038 14.5232 13.8052 14.701 13.9747ZM10.0935 8.38047C10.1625 8.47249 10.235 8.56893 10.3093 8.66743L9.51415 9.06591C9.42136 9.1123 9.30803 9.07459 9.26113 8.98092C9.24806 8.9549 9.24139 8.9268 9.24139 8.89738C9.24139 8.82527 9.28131 8.76053 9.34574 8.72834L10.0783 8.36136C10.0832 8.36783 10.0886 8.37393 10.0935 8.38047ZM11.7779 10.5776C11.8571 10.6783 11.9369 10.7792 12.0169 10.8801L10.8543 11.4629C10.7613 11.5094 10.6477 11.4717 10.6006 11.3778C10.5875 11.3519 10.5809 11.3238 10.5809 11.2944C10.5809 11.2223 10.6208 11.1575 10.6852 11.1253L11.7779 10.5776ZM13.441 12.6141C13.5256 12.7126 13.6093 12.8093 13.6916 12.9031L12.3562 13.7139C12.3132 13.7401 12.2626 13.7477 12.2137 13.7359C12.1648 13.724 12.1235 13.6937 12.0973 13.6507C12.0793 13.6209 12.0701 13.5881 12.0701 13.5531C12.0701 13.4864 12.1039 13.4262 12.161 13.3917L13.441 12.6141ZM7.16632 6.96689C7.28431 6.84519 7.44876 6.77962 7.61824 6.78949C7.78746 6.79836 7.94455 6.87983 8.04922 7.01309L8.34379 7.38806C7.71517 7.47054 7.14551 7.51033 6.6308 7.51875L7.16632 6.96689ZM1.93546 8.01706C1.93188 7.80522 2.03145 7.61826 2.20866 7.50423C2.38775 7.38882 2.61085 7.37518 2.80553 7.46777C4.08986 8.07785 5.67775 8.19087 7.03274 8.13191C7.28809 8.67472 8.06449 10.2781 9.11592 12.0129C10.8634 14.8961 12.5023 16.755 13.9873 17.5381C16.7753 19.0081 21.6662 19.3471 23.6581 19.425C21.4825 19.925 19.0714 20.1338 17.1382 20.2148C7.93481 20.6009 1.93339 19.3171 0.698467 19.0229C0.788611 18.1745 0.966385 17.3233 1.23279 16.4741C1.9305 14.25 1.97249 10.2208 1.93546 8.01706ZM20.1912 21.5568C11.0421 22.1272 4.52172 21.3947 0.634725 20.6693C0.624919 20.3324 0.628691 19.9947 0.647109 19.6563C1.91968 19.9523 6.61025 20.9149 13.751 20.9149C14.8332 20.9149 15.9732 20.8927 17.1644 20.8428C18.3388 20.7936 19.3996 20.7118 20.3584 20.6052C20.3056 20.8484 20.2427 21.1768 20.1912 21.5568ZM0.768747 22.1462C0.726189 21.8701 0.69457 21.5931 0.671437 21.3154C3.61312 21.855 7.99516 22.3895 13.8146 22.3895C15.7568 22.3895 17.8608 22.3296 20.1228 22.1908C20.1019 22.455 20.0898 22.7323 20.0917 23.0149C11.0992 23.5675 4.6565 22.8608 0.768747 22.1462ZM29.2896 19.8957C29.242 20.1747 29.0795 20.4207 28.8436 20.5704C26.7191 21.9192 23.9875 22.7271 20.7205 22.9735C20.7189 21.9239 20.9245 20.935 21.0221 20.5254C26.5466 19.8107 28.3989 18.2496 28.9676 17.5453C29.2531 17.8835 29.5174 18.5597 29.2896 19.8957Z" fill="#A4ACAD"/>
<path d="M10.9279 19.8383C11.4132 19.8383 11.808 19.4435 11.808 18.9582C11.808 18.4729 11.4132 18.0781 10.9279 18.0781C10.4426 18.0781 10.0479 18.4729 10.0479 18.9582C10.0479 19.4435 10.4426 19.8383 10.9279 19.8383ZM10.9279 18.7067C11.0666 18.7067 11.1794 18.8195 11.1794 18.9582C11.1794 19.0969 11.0666 19.2096 10.9279 19.2096C10.7892 19.2096 10.6765 19.0969 10.6765 18.9582C10.6765 18.8195 10.7892 18.7067 10.9279 18.7067Z" fill="#A4ACAD"/>
<path d="M13.0651 19.8383C13.5504 19.8383 13.9452 19.4435 13.9452 18.9582C13.9452 18.4729 13.5504 18.0781 13.0651 18.0781C12.5798 18.0781 12.1851 18.4729 12.1851 18.9582C12.1851 19.4435 12.5798 19.8383 13.0651 19.8383ZM13.0651 18.7067C13.2038 18.7067 13.3166 18.8195 13.3166 18.9582C13.3166 19.0969 13.2038 19.2096 13.0651 19.2096C12.9265 19.2096 12.8137 19.0969 12.8137 18.9582C12.8137 18.8195 12.9265 18.7067 13.0651 18.7067Z" fill="#A4ACAD"/>
<path d="M5.58479 15.6891C6.97127 15.6891 8.09926 14.5611 8.09926 13.1746C8.09926 11.7881 6.97127 10.6602 5.58479 10.6602C4.19831 10.6602 3.07031 11.7881 3.07031 13.1746C3.07031 14.5611 4.19824 15.6891 5.58479 15.6891ZM5.58479 11.2888C6.62465 11.2888 7.47064 12.1348 7.47064 13.1746C7.47064 14.2145 6.62465 15.0605 5.58479 15.0605C4.54493 15.0605 3.69893 14.2145 3.69893 13.1746C3.69893 12.1348 4.54493 11.2888 5.58479 11.2888Z" fill="#A4ACAD"/>
</g>
<defs>
<clipPath id="clip0_1135_1296">
<rect width="30" height="30" fill="white"/>
</clipPath>
</defs>
</svg>
