<svg width="22" height="21" viewBox="0 0 22 21" fill="none" xmlns="http://www.w3.org/2000/svg">
<path d="M13.796 4.375C14.6913 4.54174 15.5142 4.95973 16.1592 5.57544C16.8042 6.19116 17.2421 6.97661 17.4168 7.83125L13.796 4.375ZM13.796 0.875C15.6561 1.07226 17.3908 1.8674 18.715 3.12988C20.0393 4.39236 20.8745 6.04713 21.0835 7.8225L13.796 0.875ZM20.1668 14.805V17.43C20.1678 17.6737 20.1156 17.9149 20.0133 18.1382C19.911 18.3615 19.761 18.5619 19.5729 18.7266C19.3848 18.8914 19.1627 19.0168 18.9208 19.0949C18.679 19.1729 18.4227 19.2019 18.1685 19.18C15.3477 18.8874 12.6382 17.9674 10.2576 16.4938C8.04282 15.1503 6.16503 13.3579 4.75764 11.2438C3.20846 8.96105 2.24436 6.36212 1.94348 3.6575C1.92057 3.41553 1.95069 3.17167 2.03193 2.94142C2.11317 2.71118 2.24375 2.4996 2.41534 2.32017C2.58694 2.14073 2.7958 1.99737 3.02862 1.89921C3.26144 1.80104 3.51312 1.75023 3.76764 1.75H6.51764C6.96251 1.74582 7.39379 1.89619 7.73109 2.17309C8.0684 2.44999 8.28871 2.83452 8.35098 3.255C8.46705 4.09506 8.68231 4.91989 8.99264 5.71375C9.11597 6.02693 9.14267 6.3673 9.06956 6.69452C8.99645 7.02174 8.8266 7.3221 8.58014 7.56L7.41598 8.67125C8.7209 10.8619 10.6211 12.6756 12.916 13.9212L14.0801 12.81C14.3294 12.5747 14.644 12.4126 14.9868 12.3428C15.3296 12.273 15.6862 12.2985 16.0143 12.4162C16.846 12.7125 17.7101 12.918 18.5901 13.0288C19.0354 13.0887 19.4421 13.3028 19.7328 13.6303C20.0235 13.9578 20.178 14.3759 20.1668 14.805Z" stroke="black" stroke-linecap="round" stroke-linejoin="round"/>
</svg>
