<svg width="144" height="50" viewBox="0 0 144 50" fill="none" xmlns="http://www.w3.org/2000/svg">
<path d="M133.425 3.4625C135.956 3.4625 137.673 3.9438 138.675 4.9341C139.677 5.92385 140.164 7.62455 140.164 10.1331V40.0514C140.164 42.5528 139.679 44.2439 138.681 45.2216C137.683 46.2002 135.963 46.6758 133.426 46.6758H9.97199C7.45001 46.6758 5.75016 46.2043 4.77553 45.2344C3.8009 44.2646 3.32717 42.5718 3.32717 40.0593V10.1331C3.32717 7.25696 3.64147 5.67274 4.37805 4.83576C5.20268 3.89892 6.9828 3.4625 9.98045 3.4625H133.425ZM133.425 1.52344H9.98045C2.61263 1.52344 1.38623 4.07205 1.38623 10.1331V40.0592C1.38623 46.1157 3.90973 48.6148 9.97199 48.6148H133.425C139.492 48.6148 142.105 46.1122 142.105 40.0514V10.1331C142.105 4.07205 139.492 1.52344 133.425 1.52344Z" fill="black"/>
<path d="M70.522 28.5338C67.9231 28.5338 65.8657 30.4812 65.8657 33.1856C65.8657 35.782 67.9231 37.8376 70.522 37.8376C73.1209 37.8376 75.1784 35.8902 75.1784 33.1856C75.1784 30.3729 73.1209 28.5338 70.522 28.5338ZM70.522 35.8902C69.1142 35.8902 67.9231 34.7002 67.9231 33.0775C67.9231 31.4546 69.1142 30.2646 70.522 30.2646C71.9297 30.2646 73.1209 31.3466 73.1209 33.0775C73.1209 34.7002 71.9297 35.8902 70.522 35.8902ZM60.4513 28.5338C57.8523 28.5338 55.7948 30.4812 55.7948 33.1856C55.7948 35.782 57.8523 37.8376 60.4513 37.8376C63.0502 37.8376 65.1076 35.8902 65.1076 33.1856C65.1076 30.3729 63.0502 28.5338 60.4513 28.5338ZM60.4513 35.8902C59.0434 35.8902 57.8523 34.7002 57.8523 33.0775C57.8523 31.4546 59.0434 30.2646 60.4513 30.2646C61.859 30.2646 63.0502 31.3466 63.0502 33.0775C63.0502 34.7002 61.859 35.8902 60.4513 35.8902ZM48.4311 29.9402V31.8874H53.0876C52.9793 32.9694 52.5462 33.835 52.0047 34.3758C51.355 35.025 50.2721 35.782 48.4311 35.782C45.5074 35.782 43.3417 33.5103 43.3417 30.5892C43.3417 27.6683 45.6157 25.3966 48.4311 25.3966C49.9473 25.3966 51.1383 26.0458 52.0047 26.8028L53.4124 25.3966C52.2213 24.3146 50.7052 23.4492 48.5394 23.4492C44.6412 23.4492 41.2842 26.6948 41.2842 30.5892C41.2842 34.4838 44.641 37.7296 48.5394 37.7296C50.7052 37.7296 52.2213 37.0802 53.5207 35.6739C54.8202 34.3758 55.2534 32.5368 55.2534 31.1302C55.2534 30.6974 55.2534 30.2647 55.1451 29.9402H48.4311ZM97.5941 31.4548C97.161 30.3729 96.078 28.5338 93.6957 28.5338C91.3132 28.5338 89.3642 30.3729 89.3642 33.1856C89.3642 35.782 91.3134 37.8376 93.9123 37.8376C95.97 37.8376 97.2694 36.5394 97.7024 35.782L96.1864 34.7002C95.6448 35.4575 94.9952 35.9984 93.9123 35.9984C92.8294 35.9984 92.1797 35.5657 91.6383 34.592L97.8107 31.9956L97.5941 31.4548ZM91.3134 32.9693C91.3134 31.2384 92.7211 30.2647 93.6959 30.2647C94.4538 30.2647 95.2119 30.6974 95.4284 31.2384L91.3134 32.9693ZM86.2238 37.4048H88.2815V23.8819H86.2238V37.4048ZM82.9752 29.5074C82.4337 28.9665 81.5675 28.4255 80.4846 28.4255C78.2105 28.4255 76.0447 30.4811 76.0447 33.0775C76.0447 35.6737 78.1022 37.6212 80.4846 37.6212C81.5675 37.6212 82.4337 37.0802 82.8669 36.5392H82.9752V37.1884C82.9752 38.9194 82.0006 39.893 80.4846 39.893C79.2934 39.893 78.427 39.0276 78.2105 38.2701L76.4779 39.0276C77.0193 40.2176 78.3188 41.732 80.593 41.732C82.9753 41.732 84.9243 40.3258 84.9243 36.9719V28.7502H82.9752V29.5074ZM80.5928 35.8902C79.1851 35.8902 77.9939 34.7002 77.9939 33.0775C77.9939 31.4546 79.1851 30.2646 80.5928 30.2646C82.0004 30.2646 83.0835 31.4546 83.0835 33.0775C83.0835 34.7002 82.0006 35.8902 80.5928 35.8902ZM107.015 23.8819H102.142V37.4048H104.2V32.3203H107.015C109.289 32.3203 111.455 30.6974 111.455 28.101C111.455 25.5046 109.289 23.8819 107.015 23.8819ZM107.123 30.3729H104.2V25.7211H107.123C108.64 25.7211 109.506 27.0193 109.506 27.9927C109.398 29.1829 108.531 30.3729 107.123 30.3729ZM119.577 28.4257C118.061 28.4257 116.545 29.0748 116.003 30.4812L117.844 31.2386C118.277 30.4812 118.927 30.2649 119.685 30.2649C120.768 30.2649 121.742 30.9142 121.851 31.9958V32.1039C121.526 31.8874 120.659 31.5631 119.793 31.5631C117.844 31.5631 115.895 32.6451 115.895 34.5922C115.895 36.4314 117.519 37.6214 119.252 37.6214C120.659 37.6214 121.309 36.9721 121.851 36.3232H121.959V37.4049H123.908V32.2122C123.692 29.832 121.851 28.4257 119.577 28.4257ZM119.36 35.8902C118.71 35.8902 117.736 35.5657 117.736 34.7002C117.736 33.6183 118.927 33.2938 119.901 33.2938C120.768 33.2938 121.201 33.5103 121.742 33.7266C121.526 35.0248 120.443 35.8902 119.36 35.8902ZM130.73 28.7502L128.456 34.592H128.348L125.966 28.7502H123.8L127.373 36.9719L125.316 41.5158H127.373L132.896 28.7502H130.73ZM112.538 37.4048H114.595V23.8819H112.538V37.4048Z" fill="black"/>
<path d="M45.0607 15.8492H48.4346C48.4539 15.926 48.4697 16.0188 48.4827 16.1277C48.4953 16.2366 48.5018 16.3454 48.5018 16.4541C48.5018 16.896 48.4346 17.3122 48.3 17.7025C48.1655 18.0931 47.9539 18.442 47.6656 18.7492C47.3581 19.0757 46.9894 19.3288 46.5602 19.5079C46.1308 19.687 45.6406 19.7767 45.0895 19.7767C44.5897 19.7767 44.1186 19.687 43.6765 19.5079C43.2344 19.3288 42.8498 19.0791 42.523 18.7589C42.1961 18.4388 41.9367 18.0594 41.7444 17.6209C41.5521 17.1824 41.4561 16.7039 41.4561 16.1853C41.4561 15.6667 41.5521 15.1882 41.7444 14.7497C41.9367 14.3112 42.1961 13.9318 42.523 13.6116C42.8498 13.2917 43.2344 13.0419 43.6765 12.8627C44.1186 12.6835 44.5897 12.5938 45.0895 12.5938C45.647 12.5938 46.1452 12.6897 46.5842 12.8818C47.0231 13.0739 47.3996 13.3396 47.7137 13.6789L46.8197 14.5528C46.5953 14.3161 46.3454 14.135 46.07 14.0102C45.7943 13.8853 45.4644 13.823 45.0799 13.823C44.7659 13.823 44.4678 13.8791 44.1859 13.991C43.9039 14.103 43.6572 14.2615 43.4458 14.4663C43.2344 14.6713 43.0661 14.9194 42.9412 15.2105C42.8162 15.5019 42.7537 15.8269 42.7537 16.1853C42.7537 16.5439 42.8162 16.8687 42.9412 17.16C43.0661 17.4514 43.2358 17.6993 43.4507 17.9041C43.6653 18.1091 43.9136 18.2676 44.1956 18.3796C44.4774 18.4917 44.7785 18.5476 45.0991 18.5476C45.4644 18.5476 45.7735 18.4949 46.0267 18.3892C46.2797 18.2835 46.4961 18.1476 46.6755 17.981C46.8036 17.8658 46.9141 17.7202 47.0072 17.544C47.0999 17.3681 47.172 17.1712 47.2234 16.9534H45.0607V15.8492Z" fill="black"/>
<path d="M50.8763 13.9753V15.5694H53.6349V16.7986H50.8763V18.3928H53.9425V19.6219H49.5786V12.7461H53.9425V13.9753H50.8763Z" fill="black"/>
<path d="M56.5954 19.6219V13.9753H54.6729V12.7461H59.8155V13.9753H57.893V19.6219H56.5954Z" fill="black"/>
<path d="M64.1507 12.7461H62.853V19.6219H64.1507V12.7461Z" fill="black"/>
<path d="M66.9957 19.6219V13.9753H65.0732V12.7461H70.2159V13.9753H68.2934V19.6219H66.9957Z" fill="black"/>
<path d="M76.3192 19.7769C75.8065 19.7769 75.3307 19.6839 74.8917 19.4983C74.4527 19.3127 74.0732 19.0583 73.7527 18.7349C73.4322 18.4116 73.1808 18.0307 72.9982 17.5921C72.8156 17.1537 72.7241 16.6846 72.7241 16.1853C72.7241 15.6859 72.8155 15.217 72.9982 14.7785C73.1809 14.34 73.4323 13.9591 73.7527 13.6357C74.0732 13.3124 74.4527 13.058 74.8917 12.8723C75.3307 12.6867 75.8065 12.5938 76.3192 12.5938C76.8317 12.5938 77.3077 12.6867 77.7467 12.8723C78.1855 13.058 78.5651 13.3124 78.8858 13.6357C79.2062 13.9591 79.4577 14.34 79.6403 14.7785C79.8229 15.217 79.9144 15.6859 79.9144 16.1853C79.9144 16.6846 79.823 17.1537 79.6403 17.5921C79.4577 18.0307 79.206 18.4116 78.8858 18.7349C78.5651 19.0583 78.1855 19.3127 77.7467 19.4983C77.3077 19.6839 76.8317 19.7769 76.3192 19.7769ZM76.3192 18.5476C76.6397 18.5476 76.9393 18.49 77.2178 18.3748C77.4966 18.2595 77.7402 18.0996 77.9485 17.8946C78.1567 17.6897 78.3201 17.4418 78.4387 17.1504C78.5572 16.8591 78.6166 16.5374 78.6166 16.1853C78.6166 15.8332 78.5572 15.5116 78.4387 15.2202C78.3201 14.9289 78.1567 14.681 77.9485 14.476C77.7402 14.2712 77.4966 14.1111 77.2178 13.9958C76.9392 13.8806 76.6396 13.823 76.3192 13.823C75.9988 13.823 75.6992 13.8806 75.4205 13.9958C75.1417 14.1111 74.8981 14.2712 74.6899 14.476C74.4815 14.681 74.3182 14.9289 74.1998 15.2202C74.0811 15.5116 74.0219 15.8332 74.0219 16.1853C74.0219 16.5374 74.0811 16.8591 74.1998 17.1504C74.3182 17.4418 74.4815 17.6897 74.6899 17.8946C74.8981 18.0996 75.1417 18.2595 75.4205 18.3748C75.6993 18.49 75.9988 18.5476 76.3192 18.5476Z" fill="black"/>
<path d="M80.9619 12.7461H82.471L85.2393 17.3555H85.3163L85.2393 16.0303V12.7461H86.5274V19.6219H85.1624L82.2403 14.7532H82.1634L82.2403 16.0784V19.6219H80.9619V12.7461Z" fill="black"/>
<path fill-rule="evenodd" clip-rule="evenodd" d="M31.4344 20.9239L14.5903 11.2422L27.8955 24.4657L31.4344 20.9239Z" fill="black"/>
<path fill-rule="evenodd" clip-rule="evenodd" d="M13.0273 11.3398C12.9631 11.4565 12.8931 11.5912 12.8931 11.7397V39.1367C12.8931 39.2225 12.9378 39.3036 12.9609 39.3797L27.0513 25.2779L13.0273 11.3398Z" fill="black"/>
<path fill-rule="evenodd" clip-rule="evenodd" d="M27.8982 26.0859L14.084 39.9114C14.1243 39.8959 14.1644 39.8778 14.2036 39.8553L31.6581 29.8225L27.8982 26.0859Z" fill="black"/>
<path fill-rule="evenodd" clip-rule="evenodd" d="M38.0357 24.7169L32.4663 21.5156L28.7104 25.2745L32.691 29.2306L38.0357 26.1586C38.5922 25.8389 38.5922 25.0367 38.0357 24.7169Z" fill="black"/>
</svg>
