<svg width="30" height="30" viewBox="0 0 30 30" fill="none" xmlns="http://www.w3.org/2000/svg">
<g clip-path="url(#clip0_1135_1286)">
<path d="M27.326 3.63318C25.5969 1.8923 23.2975 0.933594 20.8514 0.933594C18.6886 0.933594 16.6407 1.68301 15.0001 3.0599C13.3595 1.68295 11.3115 0.933594 9.14874 0.933594C6.70263 0.933594 4.40329 1.8923 2.67407 3.63324C-0.891358 7.22305 -0.891358 13.0641 2.67407 16.654L15.0001 29.064L27.326 16.6539C30.8914 13.0641 30.8914 7.22305 27.326 3.63318ZM26.0793 15.4157L15.0001 26.5705L3.92089 15.4157C1.03362 12.5086 1.03362 7.7784 3.92089 4.87139C5.31759 3.46508 7.17437 2.69064 9.1488 2.69064C11.1232 2.69064 12.98 3.46514 14.3768 4.87139L15.0001 5.49898L15.6235 4.87139C17.0202 3.46508 18.8769 2.69064 20.8514 2.69064C22.8259 2.69064 24.6826 3.46514 26.0794 4.87139C28.9667 7.77846 28.9667 12.5087 26.0793 15.4157Z" fill="#A4ACAD"/>
<path d="M15.0001 6.61719C11.1247 6.61719 7.97168 9.77012 7.97168 13.6456C7.97168 17.5211 11.1247 20.6741 15.0001 20.6741C18.8756 20.6741 22.0286 17.5211 22.0286 13.6456C22.0286 9.77012 18.8756 6.61719 15.0001 6.61719ZM15.0001 18.917C12.0935 18.917 9.72879 16.5522 9.72879 13.6456C9.72879 10.739 12.0935 8.3743 15.0001 8.3743C17.9067 8.3743 20.2714 10.739 20.2714 13.6456C20.2714 16.5522 17.9068 18.917 15.0001 18.917Z" fill="#A4ACAD"/>
<path d="M15.8787 12.7646V10.3047H14.1216V12.7646H11.7202V14.5217H14.1216V16.8646H15.8787V14.5217H18.2801V12.7646H15.8787Z" fill="#A4ACAD"/>
</g>
<defs>
<clipPath id="clip0_1135_1286">
<rect width="30" height="30" fill="white"/>
</clipPath>
</defs>
</svg>
