<svg width="30" height="30" viewBox="0 0 30 30" fill="none" xmlns="http://www.w3.org/2000/svg">
<g clip-path="url(#clip0_1135_1302)">
<path d="M1.2426 25.0294L4.97063 28.7572L7.45605 26.272L11.1841 30L17.3975 23.7865L13.6695 20.0585L20.0585 13.6695L23.7868 17.3975L30 11.1841L26.272 7.45605L28.7574 4.97086L25.0294 1.24283L22.5439 3.72803L18.8159 0L12.6025 6.21346L16.3305 9.94148L9.94148 16.3305L6.21323 12.6025L0 18.8159L3.72803 22.5439L1.2426 25.0294ZM4.97063 26.272L3.72803 25.0294L4.97063 23.7865L6.21346 25.0294L4.97063 26.272ZM25.0294 3.72803L26.272 4.97063L25.0294 6.21323L23.7865 4.97063L25.0294 3.72803ZM16.3305 4.97063L22.5439 11.1841L23.7868 9.94148L17.5733 3.72803L18.8159 2.48543L27.5146 11.1841L23.7865 14.9121L15.0879 6.21346L16.3305 4.97063ZM17.5733 11.1841L18.8159 12.4267L12.4267 18.8159L11.1841 17.5733L17.5733 11.1841ZM3.72803 17.5731L9.94148 23.7865L11.1841 22.5439L4.97063 16.3305L6.21346 15.0879L14.9121 23.7865L11.1841 27.5146L2.48543 18.8159L3.72803 17.5731Z" fill="#A4ACAD"/>
</g>
<defs>
<clipPath id="clip0_1135_1302">
<rect width="30" height="30" fill="white"/>
</clipPath>
</defs>
</svg>
