<svg width="25" height="25" viewBox="0 0 25 25" fill="none" xmlns="http://www.w3.org/2000/svg">
<path d="M10.0252 5.05004C11.0739 2.35001 11.5983 1 12.5 1C13.4017 1 13.9261 2.35001 14.9748 5.05004L15.0236 5.17577C15.6161 6.70115 15.9124 7.46384 16.5161 7.92742C17.1199 8.39099 17.9124 8.4643 19.4976 8.6109L19.7841 8.6374C22.3784 8.87734 23.6755 8.99731 23.953 9.84956C24.2306 10.7018 23.2673 11.6069 21.3407 13.417L20.6977 14.0212C19.7224 14.9375 19.2348 15.3957 19.0075 15.9962C18.9651 16.1082 18.9299 16.2229 18.902 16.3397C18.7526 16.9657 18.8954 17.6304 19.181 18.9597L19.2699 19.3735C19.7947 21.8165 20.0572 23.038 19.599 23.5649C19.4278 23.7617 19.2052 23.9035 18.958 23.9732C18.2965 24.1596 17.3572 23.3692 15.4787 21.7884C14.2453 20.7504 13.6285 20.2314 12.9204 20.1147C12.6419 20.0688 12.3581 20.0688 12.0796 20.1147C11.3715 20.2314 10.7547 20.7504 9.52126 21.7884C7.64279 23.3692 6.70355 24.1596 6.04199 23.9732C5.79478 23.9035 5.57225 23.7617 5.40103 23.5649C4.94282 23.038 5.20525 21.8165 5.73012 19.3735L5.81901 18.9597C6.10461 17.6304 6.2474 16.9657 6.09801 16.3397C6.07014 16.2229 6.03489 16.1082 5.99249 15.9962C5.76521 15.3957 5.27757 14.9375 4.3023 14.0212L3.6593 13.417C1.7327 11.6069 0.769405 10.7018 1.04696 9.84956C1.32451 8.99731 2.62163 8.87734 5.21588 8.6374L5.50244 8.6109C7.08755 8.4643 7.88011 8.39099 8.48387 7.92742C9.08763 7.46384 9.38387 6.70115 9.97636 5.17577L10.0252 5.05004Z" stroke="#222222"/>
</svg>
